<svg width="11" height="13" viewBox="0 0 11 13" fill="none" xmlns="http://www.w3.org/2000/svg">
<path d="M3.48952 1.87509C3.34523 2.41677 3.79416 2.88208 4.35473 2.88208H6.82383C7.37612 2.88208 7.82215 2.42935 7.68413 1.89459C7.46878 1.06024 6.92147 0 5.53052 0C4.24496 0 3.71096 1.04382 3.48952 1.87509Z" fill="white"/>
<path d="M0.100716 10.5915C-0.282413 11.4298 0.57634 12.2961 1.41797 11.9203L3.19958 11.1247C3.63282 10.9313 4.14236 11.0689 4.4193 11.4541L4.68959 11.8301C5.0891 12.3859 5.91632 12.3851 6.31472 11.8285L6.58105 11.4564C6.85766 11.07 7.36802 10.9316 7.80194 11.1254L9.58186 11.9202C10.4235 12.296 11.2823 11.4297 10.8991 10.5914L8.0909 4.4475C7.92819 4.09154 7.57278 3.86321 7.1814 3.86321H3.81812C3.42672 3.86321 3.0713 4.09156 2.90861 4.44754L0.100716 10.5915Z" fill="#4A5CF9"/>
</svg>
