<svg width="434" height="135" viewBox="0 0 434 135" fill="none" xmlns="http://www.w3.org/2000/svg">
<g filter="url(#filter0_d_591_5)">
<path d="M0 30C0 13.4315 13.4315 0 30 0H385C401.569 0 415 13.4315 415 30V105C415 121.569 401.569 135 385 135H30C13.4315 135 0 121.569 0 105V30Z" fill="#BEC5FF"/>
</g>
<path d="M110.65 49.4C111.002 49.4 111.306 49.528 111.562 49.784C111.818 50.04 111.946 50.344 111.946 50.696V81.704C111.946 82.056 111.818 82.36 111.562 82.616C111.306 82.872 111.002 83 110.65 83H100.762C100.41 83 100.106 82.872 99.8496 82.616C99.5936 82.36 99.4656 82.056 99.4656 81.704V71.48H89.8656V81.704C89.8656 82.056 89.7376 82.36 89.4816 82.616C89.2256 82.872 88.9216 83 88.5696 83H78.6816C78.3296 83 78.0256 82.888 77.7696 82.664C77.5136 82.408 77.3856 82.088 77.3856 81.704V50.696C77.3856 50.344 77.5136 50.04 77.7696 49.784C78.0256 49.528 78.3296 49.4 78.6816 49.4H88.5696C88.9216 49.4 89.2256 49.528 89.4816 49.784C89.7376 50.04 89.8656 50.344 89.8656 50.696V60.536H99.4656V50.696C99.4656 50.344 99.5936 50.04 99.8496 49.784C100.106 49.528 100.41 49.4 100.762 49.4H110.65ZM152.007 49.4C152.359 49.4 152.663 49.528 152.919 49.784C153.175 50.04 153.303 50.344 153.303 50.696V58.424C153.303 58.776 153.175 59.08 152.919 59.336C152.663 59.592 152.359 59.72 152.007 59.72H141.687V81.704C141.687 82.056 141.559 82.36 141.303 82.616C141.047 82.872 140.743 83 140.391 83H130.503C130.151 83 129.847 82.872 129.591 82.616C129.335 82.36 129.207 82.056 129.207 81.704V59.72H118.887C118.535 59.72 118.231 59.592 117.975 59.336C117.719 59.08 117.591 58.776 117.591 58.424V50.696C117.591 50.344 117.719 50.04 117.975 49.784C118.231 49.528 118.535 49.4 118.887 49.4H152.007ZM192.788 49.4C193.14 49.4 193.444 49.528 193.7 49.784C193.956 50.04 194.084 50.344 194.084 50.696V58.424C194.084 58.776 193.956 59.08 193.7 59.336C193.444 59.592 193.14 59.72 192.788 59.72H182.468V81.704C182.468 82.056 182.34 82.36 182.084 82.616C181.828 82.872 181.524 83 181.172 83H171.284C170.932 83 170.628 82.872 170.372 82.616C170.116 82.36 169.988 82.056 169.988 81.704V59.72H159.668C159.316 59.72 159.012 59.592 158.756 59.336C158.5 59.08 158.372 58.776 158.372 58.424V50.696C158.372 50.344 158.5 50.04 158.756 49.784C159.012 49.528 159.316 49.4 159.668 49.4H192.788ZM221.905 49.4C224.913 49.4 227.537 49.912 229.777 50.936C232.017 51.96 233.729 53.352 234.913 55.112C236.097 56.872 236.689 58.84 236.689 61.016C236.689 64.6 235.569 67.416 233.329 69.464C231.089 71.48 227.281 72.488 221.905 72.488H215.569V81.704C215.569 82.056 215.441 82.36 215.185 82.616C214.929 82.872 214.625 83 214.273 83H203.953C203.601 83 203.297 82.872 203.041 82.616C202.785 82.36 202.657 82.056 202.657 81.704V50.696C202.657 50.344 202.785 50.04 203.041 49.784C203.297 49.528 203.601 49.4 203.953 49.4H221.905ZM221.713 63.608C222.481 63.608 223.089 63.384 223.537 62.936C223.985 62.456 224.209 61.832 224.209 61.064C224.209 60.264 223.985 59.608 223.537 59.096C223.089 58.584 222.481 58.328 221.713 58.328H215.617V63.608H221.713ZM262.639 55.448C262.991 55.448 263.295 55.576 263.551 55.832C263.807 56.088 263.935 56.392 263.935 56.744V65.336C263.935 65.688 263.807 65.992 263.551 66.248C263.295 66.504 262.991 66.632 262.639 66.632H252.895C252.543 66.632 252.239 66.504 251.983 66.248C251.727 65.992 251.599 65.688 251.599 65.336V56.744C251.599 56.392 251.727 56.088 251.983 55.832C252.239 55.576 252.543 55.448 252.895 55.448H262.639ZM262.639 71.816C262.991 71.816 263.295 71.944 263.551 72.2C263.807 72.456 263.935 72.76 263.935 73.112V81.704C263.935 82.056 263.807 82.36 263.551 82.616C263.295 82.872 262.991 83 262.639 83H252.895C252.543 83 252.239 82.872 251.983 82.616C251.727 82.36 251.599 82.056 251.599 81.704V73.112C251.599 72.76 251.727 72.456 251.983 72.2C252.239 71.944 252.543 71.816 252.895 71.816H262.639ZM302.124 46.712C302.252 46.328 302.492 45.992 302.844 45.704C303.228 45.416 303.692 45.272 304.236 45.272H311.1C311.388 45.272 311.628 45.384 311.82 45.608C312.044 45.8 312.156 46.04 312.156 46.328C312.156 46.456 312.124 46.6 312.06 46.76L294.876 85.592C294.492 86.552 293.788 87.032 292.764 87.032H286.044C285.756 87.032 285.5 86.92 285.276 86.696C285.084 86.504 284.988 86.264 284.988 85.976C284.988 85.848 285.02 85.704 285.084 85.544L302.124 46.712ZM342.905 46.712C343.033 46.328 343.273 45.992 343.625 45.704C344.009 45.416 344.473 45.272 345.017 45.272H351.881C352.169 45.272 352.409 45.384 352.601 45.608C352.825 45.8 352.937 46.04 352.937 46.328C352.937 46.456 352.905 46.6 352.841 46.76L335.657 85.592C335.273 86.552 334.569 87.032 333.545 87.032H326.825C326.537 87.032 326.281 86.92 326.057 86.696C325.865 86.504 325.769 86.264 325.769 85.976C325.769 85.848 325.801 85.704 325.865 85.544L342.905 46.712Z" fill="white"/>
<defs>
<filter id="filter0_d_591_5" x="0" y="0" width="434" height="135" filterUnits="userSpaceOnUse" color-interpolation-filters="sRGB">
<feFlood flood-opacity="0" result="BackgroundImageFix"/>
<feColorMatrix in="SourceAlpha" type="matrix" values="0 0 0 0 0 0 0 0 0 0 0 0 0 0 0 0 0 0 127 0" result="hardAlpha"/>
<feOffset dx="19"/>
<feComposite in2="hardAlpha" operator="out"/>
<feColorMatrix type="matrix" values="0 0 0 0 0.463125 0 0 0 0 0.515775 0 0 0 0 0.975 0 0 0 1 0"/>
<feBlend mode="normal" in2="BackgroundImageFix" result="effect1_dropShadow_591_5"/>
<feBlend mode="normal" in="SourceGraphic" in2="effect1_dropShadow_591_5" result="shape"/>
</filter>
</defs>
</svg>
