<svg width="536" height="301" viewBox="0 0 536 301" fill="none" xmlns="http://www.w3.org/2000/svg">
<rect width="483" height="224" rx="8" fill="#DDE1FF"/>
<rect x="18" y="20" width="145" height="8" rx="4" fill="#EDEFFF"/>
<rect x="18" y="38" width="145" height="8" rx="4" fill="#EDEFFF"/>
<rect x="18" y="56" width="145" height="8" rx="4" fill="#EDEFFF"/>
<rect x="18" y="74" width="145" height="8" rx="4" fill="#EDEFFF"/>
<rect x="18" y="92" width="145" height="8" rx="4" fill="#EDEFFF"/>
<rect x="18" y="110" width="145" height="8" rx="4" fill="#EDEFFF"/>
<rect x="18" y="128" width="145" height="8" rx="4" fill="#EDEFFF"/>
<rect x="18" y="146" width="145" height="8" rx="4" fill="#EDEFFF"/>
<rect x="173" y="20" width="91" height="8" rx="4" fill="#EDEFFF"/>
<rect x="173" y="38" width="91" height="8" rx="4" fill="#EDEFFF"/>
<rect x="173" y="56" width="91" height="8" rx="4" fill="#EDEFFF"/>
<rect x="173" y="74" width="91" height="8" rx="4" fill="#EDEFFF"/>
<rect x="173" y="92" width="91" height="8" rx="4" fill="#EDEFFF"/>
<rect x="173" y="110" width="91" height="8" rx="4" fill="#EDEFFF"/>
<rect x="173" y="128" width="91" height="8" rx="4" fill="#EDEFFF"/>
<rect x="173" y="146" width="91" height="8" rx="4" fill="#EDEFFF"/>
<rect x="275" y="20" width="74" height="8" rx="4" fill="#EDEFFF"/>
<rect x="275" y="38" width="74" height="8" rx="4" fill="#EDEFFF"/>
<rect x="275" y="56" width="74" height="8" rx="4" fill="#EDEFFF"/>
<rect x="275" y="74" width="74" height="8" rx="4" fill="#EDEFFF"/>
<rect x="275" y="92" width="74" height="8" rx="4" fill="#EDEFFF"/>
<rect x="275" y="110" width="74" height="8" rx="4" fill="#EDEFFF"/>
<rect x="275" y="128" width="74" height="8" rx="4" fill="#EDEFFF"/>
<rect x="275" y="146" width="74" height="8" rx="4" fill="#EDEFFF"/>
<rect x="360" y="20" width="47" height="8" rx="4" fill="#EDEFFF"/>
<rect x="360" y="38" width="47" height="8" rx="4" fill="#EDEFFF"/>
<rect x="360" y="56" width="47" height="8" rx="4" fill="#EDEFFF"/>
<rect x="360" y="74" width="47" height="8" rx="4" fill="#EDEFFF"/>
<rect x="360" y="92" width="47" height="8" rx="4" fill="#EDEFFF"/>
<rect x="360" y="110" width="47" height="8" rx="4" fill="#EDEFFF"/>
<rect x="360" y="128" width="47" height="8" rx="4" fill="#EDEFFF"/>
<rect x="360" y="146" width="47" height="8" rx="4" fill="#EDEFFF"/>
<rect x="417" y="20" width="47" height="8" rx="4" fill="#EDEFFF"/>
<rect x="417" y="38" width="47" height="8" rx="4" fill="#EDEFFF"/>
<rect x="417" y="56" width="47" height="8" rx="4" fill="#EDEFFF"/>
<rect x="417" y="74" width="47" height="8" rx="4" fill="#EDEFFF"/>
<rect x="417" y="92" width="47" height="8" rx="4" fill="#EDEFFF"/>
<rect x="417" y="110" width="47" height="8" rx="4" fill="#EDEFFF"/>
<rect x="417" y="128" width="47" height="8" rx="4" fill="#EDEFFF"/>
<rect x="417" y="146" width="47" height="8" rx="4" fill="#EDEFFF"/>
<rect x="279" y="122" width="257" height="141" rx="8" fill="#E9EBFF"/>
<rect x="279" y="122" width="257" height="141" rx="8" fill="#E9EBFF"/>
<rect x="431" y="227" width="89" height="19" rx="7" fill="#4A5CF9"/>
<rect x="295" y="146" width="107" height="19" rx="7" fill="white"/>
<rect x="412" y="146" width="107" height="19" rx="7" fill="white"/>
<rect x="295" y="175" width="107" height="19" rx="7" fill="white"/>
<rect x="412" y="175" width="107" height="19" rx="7" fill="white"/>
<rect x="72" y="165" width="95" height="72" rx="12" fill="#4A5CF9"/>
<rect x="36" y="185" width="166" height="116" rx="12" fill="url(#paint0_linear_588_2)"/>
<path d="M122.5 215C122.5 213.067 120.933 211.5 119 211.5C117.067 211.5 115.5 213.067 115.5 215L122.5 215ZM116.525 273.475C117.892 274.842 120.108 274.842 121.475 273.475L143.749 251.201C145.116 249.834 145.116 247.618 143.749 246.251C142.382 244.884 140.166 244.884 138.799 246.251L119 266.05L99.201 246.251C97.8342 244.884 95.6181 244.884 94.2513 246.251C92.8844 247.618 92.8844 249.834 94.2513 251.201L116.525 273.475ZM115.5 215L115.5 271L122.5 271L122.5 215L115.5 215Z" fill="white"/>
<defs>
<linearGradient id="paint0_linear_588_2" x1="168.066" y1="297.5" x2="66.3018" y2="222.117" gradientUnits="userSpaceOnUse">
<stop stop-color="#B8BEF8"/>
<stop offset="1" stop-color="#DBDFFB"/>
</linearGradient>
</defs>
</svg>
