<svg width="609" height="334" viewBox="0 0 609 334" fill="none" xmlns="http://www.w3.org/2000/svg">
<rect x="0.5" y="87.5" width="193" height="246" rx="7.5" fill="#F8F8FF" stroke="#DEE1FF"/>
<rect x="208.5" y="87.5" width="192" height="246" rx="7.5" fill="#F8F8FF" stroke="#DEE1FF"/>
<rect x="415.5" y="87.5" width="193" height="246" rx="7.5" fill="#F8F8FF" stroke="#DEE1FF"/>
<rect x="14" y="110" width="101" height="8" rx="4" fill="#D9DDFF"/>
<rect x="123" y="110" width="23" height="8" rx="4" fill="#D9DDFF"/>
<rect x="154" y="110" width="23" height="8" rx="4" fill="#D9DDFF"/>
<rect x="14" y="128" width="101" height="8" rx="4" fill="#D9DDFF"/>
<rect x="123" y="128" width="23" height="8" rx="4" fill="#D9DDFF"/>
<rect x="154" y="128" width="23" height="8" rx="4" fill="#D9DDFF"/>
<rect x="14" y="146" width="101" height="8" rx="4" fill="#D9DDFF"/>
<rect x="123" y="146" width="23" height="8" rx="4" fill="#D9DDFF"/>
<rect x="154" y="146" width="23" height="8" rx="4" fill="#D9DDFF"/>
<rect x="14" y="164" width="101" height="8" rx="4" fill="#D9DDFF"/>
<rect x="123" y="164" width="23" height="8" rx="4" fill="#D9DDFF"/>
<rect x="154" y="164" width="23" height="8" rx="4" fill="#D9DDFF"/>
<rect x="14" y="182" width="101" height="8" rx="4" fill="#D9DDFF"/>
<rect x="123" y="182" width="23" height="8" rx="4" fill="#D9DDFF"/>
<rect x="154" y="182" width="23" height="8" rx="4" fill="#D9DDFF"/>
<rect x="14" y="200" width="101" height="8" rx="4" fill="#D9DDFF"/>
<rect x="123" y="200" width="23" height="8" rx="4" fill="#D9DDFF"/>
<rect x="154" y="200" width="23" height="8" rx="4" fill="#D9DDFF"/>
<rect x="14" y="218" width="101" height="8" rx="4" fill="#D9DDFF"/>
<rect x="123" y="218" width="23" height="8" rx="4" fill="#D9DDFF"/>
<rect x="154" y="218" width="23" height="8" rx="4" fill="#D9DDFF"/>
<rect x="14" y="236" width="101" height="8" rx="4" fill="#D9DDFF"/>
<rect x="123" y="236" width="23" height="8" rx="4" fill="#D9DDFF"/>
<rect x="154" y="236" width="23" height="8" rx="4" fill="#D9DDFF"/>
<rect x="430" y="110" width="101" height="8" rx="4" fill="#D9DDFF"/>
<rect x="539" y="110" width="23" height="8" rx="4" fill="#D9DDFF"/>
<rect x="570" y="110" width="23" height="8" rx="4" fill="#D9DDFF"/>
<rect x="430" y="128" width="101" height="8" rx="4" fill="#D9DDFF"/>
<rect x="539" y="128" width="23" height="8" rx="4" fill="#D9DDFF"/>
<rect x="570" y="128" width="23" height="8" rx="4" fill="#D9DDFF"/>
<rect x="430" y="146" width="101" height="8" rx="4" fill="#D9DDFF"/>
<rect x="539" y="146" width="23" height="8" rx="4" fill="#D9DDFF"/>
<rect x="570" y="146" width="23" height="8" rx="4" fill="#D9DDFF"/>
<rect x="430" y="164" width="101" height="8" rx="4" fill="#D9DDFF"/>
<rect x="539" y="164" width="23" height="8" rx="4" fill="#D9DDFF"/>
<rect x="570" y="164" width="23" height="8" rx="4" fill="#D9DDFF"/>
<rect x="430" y="182" width="101" height="8" rx="4" fill="#D9DDFF"/>
<rect x="539" y="182" width="23" height="8" rx="4" fill="#D9DDFF"/>
<rect x="570" y="182" width="23" height="8" rx="4" fill="#D9DDFF"/>
<rect x="430" y="200" width="101" height="8" rx="4" fill="#D9DDFF"/>
<rect x="539" y="200" width="23" height="8" rx="4" fill="#D9DDFF"/>
<rect x="570" y="200" width="23" height="8" rx="4" fill="#D9DDFF"/>
<rect x="430" y="218" width="101" height="8" rx="4" fill="#D9DDFF"/>
<rect x="539" y="218" width="23" height="8" rx="4" fill="#D9DDFF"/>
<rect x="570" y="218" width="23" height="8" rx="4" fill="#D9DDFF"/>
<rect x="430" y="236" width="101" height="8" rx="4" fill="#D9DDFF"/>
<rect x="539" y="236" width="23" height="8" rx="4" fill="#D9DDFF"/>
<rect x="570" y="236" width="23" height="8" rx="4" fill="#D9DDFF"/>
<rect x="430" y="254" width="101" height="8" rx="4" fill="#D9DDFF"/>
<rect x="539" y="254" width="23" height="8" rx="4" fill="#D9DDFF"/>
<rect x="570" y="254" width="23" height="8" rx="4" fill="#D9DDFF"/>
<rect x="430" y="272" width="101" height="8" rx="4" fill="#D9DDFF"/>
<rect x="539" y="272" width="23" height="8" rx="4" fill="#D9DDFF"/>
<rect x="570" y="272" width="23" height="8" rx="4" fill="#D9DDFF"/>
<rect x="222" y="110" width="101" height="8" rx="4" fill="#D9DDFF"/>
<rect x="331" y="110" width="23" height="8" rx="4" fill="#D9DDFF"/>
<rect x="362" y="110" width="23" height="8" rx="4" fill="#D9DDFF"/>
<rect x="222" y="128" width="101" height="8" rx="4" fill="#D9DDFF"/>
<rect x="331" y="128" width="23" height="8" rx="4" fill="#D9DDFF"/>
<rect x="362" y="128" width="23" height="8" rx="4" fill="#D9DDFF"/>
<rect x="222" y="146" width="101" height="8" rx="4" fill="#D9DDFF"/>
<rect x="331" y="146" width="23" height="8" rx="4" fill="#D9DDFF"/>
<rect x="362" y="146" width="23" height="8" rx="4" fill="#D9DDFF"/>
<rect x="222" y="164" width="101" height="8" rx="4" fill="#D9DDFF"/>
<rect x="331" y="164" width="23" height="8" rx="4" fill="#D9DDFF"/>
<rect x="362" y="164" width="23" height="8" rx="4" fill="#D9DDFF"/>
<rect x="222" y="182" width="101" height="8" rx="4" fill="#D9DDFF"/>
<rect x="331" y="182" width="23" height="8" rx="4" fill="#D9DDFF"/>
<rect x="362" y="182" width="23" height="8" rx="4" fill="#D9DDFF"/>
<rect x="222" y="200" width="101" height="8" rx="4" fill="#D9DDFF"/>
<rect x="331" y="200" width="23" height="8" rx="4" fill="#D9DDFF"/>
<rect x="362" y="200" width="23" height="8" rx="4" fill="#D9DDFF"/>
<path d="M107.342 62.064H90.5743L87.8863 70H76.4303L92.6863 25.072H105.358L121.614 70H110.03L107.342 62.064ZM104.526 53.616L98.9583 37.168L93.4543 53.616H104.526Z" fill="#B1B9FF"/>
<path d="M311.574 46.96C314.177 47.5147 316.268 48.816 317.846 50.864C319.425 52.8693 320.214 55.1733 320.214 57.776C320.214 61.5307 318.892 64.5173 316.246 66.736C313.644 68.912 309.996 70 305.302 70H284.374V25.072H304.598C309.164 25.072 312.726 26.1173 315.286 28.208C317.889 30.2987 319.19 33.136 319.19 36.72C319.19 39.3653 318.486 41.5627 317.078 43.312C315.713 45.0613 313.878 46.2773 311.574 46.96ZM295.318 43.248H302.486C304.278 43.248 305.644 42.864 306.582 42.096C307.564 41.2853 308.054 40.112 308.054 38.576C308.054 37.04 307.564 35.8667 306.582 35.056C305.644 34.2453 304.278 33.84 302.486 33.84H295.318V43.248ZM303.382 61.168C305.217 61.168 306.625 60.7627 307.606 59.952C308.63 59.0987 309.142 57.8827 309.142 56.304C309.142 54.7253 308.609 53.488 307.542 52.592C306.518 51.696 305.089 51.248 303.254 51.248H295.318V61.168H303.382Z" fill="#B1B9FF"/>
<path d="M492.237 47.472C492.237 43.0347 493.197 39.088 495.117 35.632C497.037 32.1333 499.704 29.424 503.117 27.504C506.573 25.5413 510.477 24.56 514.829 24.56C520.162 24.56 524.728 25.968 528.525 28.784C532.322 31.6 534.861 35.44 536.141 40.304H524.109C523.213 38.4267 521.933 36.9973 520.269 36.016C518.648 35.0347 516.792 34.544 514.701 34.544C511.33 34.544 508.6 35.7173 506.509 38.064C504.418 40.4107 503.373 43.5467 503.373 47.472C503.373 51.3973 504.418 54.5333 506.509 56.88C508.6 59.2267 511.33 60.4 514.701 60.4C516.792 60.4 518.648 59.9093 520.269 58.928C521.933 57.9467 523.213 56.5173 524.109 54.64H536.141C534.861 59.504 532.322 63.344 528.525 66.16C524.728 68.9333 520.162 70.32 514.829 70.32C510.477 70.32 506.573 69.36 503.117 67.44C499.704 65.4773 497.037 62.768 495.117 59.312C493.197 55.856 492.237 51.9093 492.237 47.472Z" fill="#B1B9FF"/>
</svg>
