<svg width="309" height="261" viewBox="0 0 309 261" fill="none" xmlns="http://www.w3.org/2000/svg">
<rect width="309" height="261" rx="8" fill="#F2F4FF"/>
<path d="M88.3423 149.064H71.5743L68.8863 157H57.4303L73.6863 112.072H86.3583L102.614 157H91.0303L88.3423 149.064ZM85.5263 140.616L79.9583 124.168L74.4543 140.616H85.5263Z" fill="#B1B9FF"/>
<path d="M172.574 194.96C175.177 195.515 177.268 196.816 178.846 198.864C180.425 200.869 181.214 203.173 181.214 205.776C181.214 209.531 179.892 212.517 177.246 214.736C174.644 216.912 170.996 218 166.302 218H145.374V173.072H165.598C170.164 173.072 173.726 174.117 176.286 176.208C178.889 178.299 180.19 181.136 180.19 184.72C180.19 187.365 179.486 189.563 178.078 191.312C176.713 193.061 174.878 194.277 172.574 194.96ZM156.318 191.248H163.486C165.278 191.248 166.644 190.864 167.582 190.096C168.564 189.285 169.054 188.112 169.054 186.576C169.054 185.04 168.564 183.867 167.582 183.056C166.644 182.245 165.278 181.84 163.486 181.84H156.318V191.248ZM164.382 209.168C166.217 209.168 167.625 208.763 168.606 207.952C169.63 207.099 170.142 205.883 170.142 204.304C170.142 202.725 169.609 201.488 168.542 200.592C167.518 199.696 166.089 199.248 164.254 199.248H156.318V209.168H164.382Z" fill="#B1B9FF"/>
<path d="M221.237 134.472C221.237 130.035 222.197 126.088 224.117 122.632C226.037 119.133 228.704 116.424 232.117 114.504C235.573 112.541 239.477 111.56 243.829 111.56C249.162 111.56 253.728 112.968 257.525 115.784C261.322 118.6 263.861 122.44 265.141 127.304H253.109C252.213 125.427 250.933 123.997 249.269 123.016C247.648 122.035 245.792 121.544 243.701 121.544C240.33 121.544 237.6 122.717 235.509 125.064C233.418 127.411 232.373 130.547 232.373 134.472C232.373 138.397 233.418 141.533 235.509 143.88C237.6 146.227 240.33 147.4 243.701 147.4C245.792 147.4 247.648 146.909 249.269 145.928C250.933 144.947 252.213 143.517 253.109 141.64H265.141C263.861 146.504 261.322 150.344 257.525 153.16C253.728 155.933 249.162 157.32 243.829 157.32C239.477 157.32 235.573 156.36 232.117 154.44C228.704 152.477 226.037 149.768 224.117 146.312C222.197 142.856 221.237 138.909 221.237 134.472Z" fill="#B1B9FF"/>
<circle cx="162.5" cy="71.5" r="36.5" fill="white"/>
<path fill-rule="evenodd" clip-rule="evenodd" d="M167.5 52C167.5 49.2386 165.261 47 162.5 47C159.739 47 157.5 49.2386 157.5 52V66.5H143C140.239 66.5 138 68.7386 138 71.5C138 74.2614 140.239 76.5 143 76.5H157.5V91C157.5 93.7614 159.739 96 162.5 96C165.261 96 167.5 93.7614 167.5 91V76.5H182C184.761 76.5 187 74.2614 187 71.5C187 68.7386 184.761 66.5 182 66.5H167.5V52Z" fill="#4A5CF9"/>
</svg>
