<svg width="500" height="280" viewBox="0 0 500 280" fill="none" xmlns="http://www.w3.org/2000/svg">
<rect x="0.5" y="0.5" width="499" height="279" rx="7.5" fill="#F8F8FF"/>
<rect x="0.5" y="0.5" width="499" height="279" rx="7.5" stroke="#DBDFFF"/>
<rect x="13" y="14" width="114" height="37" rx="5" fill="#E9EBFF"/>
<rect x="13" y="14" width="114" height="37" rx="5" fill="#E9EBFF"/>
<rect x="133" y="14" width="114" height="37" rx="5" fill="#E9EBFF"/>
<rect x="133" y="14" width="114" height="37" rx="5" fill="#E9EBFF"/>
<rect x="253" y="14" width="114" height="37" rx="5" fill="#E9EBFF"/>
<rect x="253" y="14" width="114" height="37" rx="5" fill="#E9EBFF"/>
<rect x="373" y="14" width="114" height="37" rx="5" fill="#E9EBFF"/>
<rect x="373" y="14" width="114" height="37" rx="5" fill="#E9EBFF"/>
<rect x="13" y="57" width="114" height="37" rx="5" fill="#E9EBFF"/>
<rect x="13" y="57" width="114" height="37" rx="5" fill="#E9EBFF"/>
<rect x="133" y="57" width="114" height="37" rx="5" fill="#E9EBFF"/>
<rect x="133" y="57" width="114" height="37" rx="5" fill="#E9EBFF"/>
<rect x="253" y="57" width="114" height="37" rx="5" fill="#E9EBFF"/>
<rect x="253" y="57" width="114" height="37" rx="5" fill="#E9EBFF"/>
<rect x="373" y="57" width="114" height="37" rx="5" fill="#E9EBFF"/>
<rect x="373" y="57" width="114" height="37" rx="5" fill="#E9EBFF"/>
<rect x="13" y="100" width="114" height="37" rx="5" fill="#E9EBFF"/>
<rect x="13" y="100" width="114" height="37" rx="5" fill="#E9EBFF"/>
<rect x="133" y="100" width="114" height="37" rx="5" fill="#E9EBFF"/>
<rect x="133" y="100" width="114" height="37" rx="5" fill="#E9EBFF"/>
<rect x="253" y="100" width="114" height="37" rx="5" fill="#E9EBFF"/>
<rect x="253" y="100" width="114" height="37" rx="5" fill="#E9EBFF"/>
<rect x="373" y="100" width="114" height="37" rx="5" fill="#E9EBFF"/>
<rect x="373" y="100" width="114" height="37" rx="5" fill="#E9EBFF"/>
<rect x="13" y="143" width="114" height="37" rx="5" fill="#E9EBFF"/>
<rect x="13" y="143" width="114" height="37" rx="5" fill="#E9EBFF"/>
<rect x="133" y="143" width="114" height="37" rx="5" fill="#E9EBFF"/>
<rect x="133" y="143" width="114" height="37" rx="5" fill="#E9EBFF"/>
<rect x="253" y="143" width="114" height="37" rx="5" fill="#E9EBFF"/>
<rect x="253" y="143" width="114" height="37" rx="5" fill="#E9EBFF"/>
<rect x="373" y="143" width="114" height="37" rx="5" fill="#E9EBFF"/>
<rect x="373" y="143" width="114" height="37" rx="5" fill="#E9EBFF"/>
<rect x="13" y="186" width="114" height="37" rx="5" fill="#E9EBFF"/>
<rect x="13" y="186" width="114" height="37" rx="5" fill="#E9EBFF"/>
<rect x="133" y="186" width="114" height="37" rx="5" fill="#E9EBFF"/>
<rect x="133" y="186" width="114" height="37" rx="5" fill="#E9EBFF"/>
<rect x="253" y="186" width="114" height="37" rx="5" fill="#E9EBFF"/>
<rect x="253" y="186" width="114" height="37" rx="5" fill="#E9EBFF"/>
<rect x="373" y="186" width="114" height="37" rx="5" fill="#E9EBFF"/>
<rect x="373" y="186" width="114" height="37" rx="5" fill="#E9EBFF"/>
<rect x="13" y="229" width="114" height="37" rx="5" fill="#E9EBFF"/>
<rect x="13" y="229" width="114" height="37" rx="5" fill="#E9EBFF"/>
<rect x="133" y="229" width="114" height="37" rx="5" fill="#E9EBFF"/>
<rect x="133" y="229" width="114" height="37" rx="5" fill="#E9EBFF"/>
<rect x="253" y="229" width="114" height="37" rx="5" fill="#E9EBFF"/>
<rect x="253" y="229" width="114" height="37" rx="5" fill="#E9EBFF"/>
<rect x="373" y="229" width="114" height="37" rx="5" fill="#E9EBFF"/>
<rect x="373" y="229" width="114" height="37" rx="5" fill="#E9EBFF"/>
</svg>
