<svg width="339" height="339" viewBox="0 0 339 339" fill="none" xmlns="http://www.w3.org/2000/svg">
<path d="M320.938 149.838C320.938 149.838 292.164 58.6877 229.632 30.5507C174.443 5.70874 112.663 16.5974 86.8315 73.5833C77.631 93.8894 65.6711 115.796 51.3314 132.474C35.256 151.194 13.6753 164.205 13.0176 209.556C12.3599 254.908 52.4026 308.49 90.0181 320.07C127.634 331.65 173.568 308.49 212.329 286.441C251.091 264.393 352.953 264.034 320.938 149.838Z" fill="#4A5CF9"/>
<path opacity="0.7" d="M320.938 149.838C320.938 149.838 292.164 58.6877 229.632 30.5507C174.443 5.70874 112.663 16.5974 86.8315 73.5833C77.631 93.8894 65.6711 115.796 51.3314 132.474C35.256 151.194 13.6753 164.205 13.0176 209.556C12.3599 254.908 52.4026 308.49 90.0181 320.07C127.634 331.65 173.568 308.49 212.329 286.441C251.091 264.393 352.953 264.034 320.938 149.838Z" fill="white"/>
<path d="M18.9772 267.288H324.599" stroke="#263238" stroke-linecap="round" stroke-linejoin="round"/>
<path d="M242.087 286.455C277.397 286.455 306.022 284.209 306.022 281.438C306.022 278.667 277.397 276.421 242.087 276.421C206.776 276.421 178.151 278.667 178.151 281.438C178.151 284.209 206.776 286.455 242.087 286.455Z" fill="#263238" stroke="#263238" stroke-linecap="round" stroke-linejoin="round"/>
<path d="M74.6885 281.438C90.5015 281.438 103.32 279.191 103.32 276.421C103.32 273.65 90.5015 271.403 74.6885 271.403C58.8755 271.403 46.0565 273.65 46.0565 276.421C46.0565 279.191 58.8755 281.438 74.6885 281.438Z" fill="#263238" stroke="#263238" stroke-linecap="round" stroke-linejoin="round"/>
<path d="M119.226 86.167L121.315 88.3705C121.862 88.948 122.16 89.7174 122.144 90.5127C122.129 91.308 121.802 92.0654 121.233 92.6216C120.667 93.1696 119.909 93.476 119.121 93.476C118.333 93.476 117.576 93.1696 117.009 92.6216L114.785 90.4587L119.226 86.167Z" fill="white" stroke="#263238" stroke-width="0.5" stroke-linecap="round" stroke-linejoin="round"/>
<path d="M115.857 91.5029L120.142 87.1298L119.226 86.167L114.785 90.4655L115.857 91.5029Z" fill="#263238" stroke="#263238" stroke-width="0.5" stroke-linecap="round" stroke-linejoin="round"/>
<path d="M110.86 87.8959L112.46 88.94L112.941 89.2587L114.785 90.4655L119.226 86.167L118.223 84.133L117.965 83.6042L117.097 81.8278L116.84 81.299L116.318 80.2345C116.244 78.5899 115.886 76.9705 115.26 75.4478C114.727 74.3393 113.962 73.3588 113.016 72.5731L112.494 73.1698L111.673 72.9935L111.375 74.0851H110.019L109.551 75.5428L107.802 75.936L107.287 77.6378L105.192 78.3158L105.253 79.8887L103.734 79.9769L103.68 81.8143L102.019 82.2211L102.48 83.333L102.046 83.5906C102.865 84.3291 103.752 84.9875 104.697 85.5568C105.741 86.0924 110.392 87.5908 110.392 87.5908L110.86 87.8959ZM111.484 87.2857L112.073 86.7094L113.599 87.8349L113.124 88.2959L111.484 87.2857ZM116.318 85.1907L115.084 83.7805L115.463 83.4076L116.521 84.9941L116.318 85.1907ZM115.592 85.8687L115.084 86.3636L113.728 85.0687L114.331 84.4856L115.592 85.8687ZM114.548 86.8857L114.053 87.3671L112.507 86.2552L113.124 85.6653L114.548 86.8857ZM115.091 88.9197L114.684 89.2519L113.619 88.5739L114.06 88.1468L115.091 88.9197ZM116.06 88.201L115.599 88.5061L114.514 87.7264L114.975 87.2722L116.06 88.201ZM116.86 87.2789L116.433 87.6586L115.491 86.784L115.972 86.3162L116.86 87.2789ZM116.684 85.6111L116.84 85.4619L117.762 86.8179L116.684 85.6111ZM118.338 86.1399L117.45 84.8653L117.586 84.7297L118.338 86.1399ZM117.294 84.2212L117.104 84.4042L116.019 82.8448L116.379 82.499L117.294 84.2212ZM115.192 80.8312L115.68 81.1769L116.108 81.9905L115.701 82.3906L115.396 81.9499L115.192 80.8312ZM114.053 82.6346L113.802 81.4888L114.555 82.0855L115.131 82.9465L114.697 83.3669L114.053 82.6346ZM112.812 84.2551L112.663 83.2923L113.436 83.5771L113.931 84.1127L113.301 84.7229L112.812 84.2551ZM111.551 85.6111L111.056 84.4246L112.094 84.8314L112.677 85.3263L112.033 85.9568L111.551 85.6111ZM110.792 86.8789L110.209 86.2009L111.443 86.3026L111.599 86.4179L110.968 87.0281L110.792 86.8789Z" fill="white" stroke="#263238" stroke-width="0.5" stroke-linecap="round" stroke-linejoin="round"/>
<path d="M294.659 260.467C294.659 260.467 299.1 276.143 301.907 277.627C304.714 279.112 308.565 276.143 308.415 272.597C308.266 269.051 300.727 259.132 300.727 259.132L294.659 260.467Z" fill="white" stroke="#263238" stroke-linecap="round" stroke-linejoin="round"/>
<path d="M296.211 262.684C299.765 262.684 302.646 259.57 302.646 255.728C302.646 251.886 299.765 248.772 296.211 248.772C292.658 248.772 289.777 251.886 289.777 255.728C289.777 259.57 292.658 262.684 296.211 262.684Z" fill="white" stroke="#263238" stroke-linecap="round" stroke-linejoin="round"/>
<path d="M227.808 200.403C227.808 200.403 218.038 216.675 215.821 223.035C213.604 229.395 204.295 266.827 203.393 268.746C202.491 270.664 209.014 274.516 209.902 273.492C210.79 272.468 215.529 259.288 219.964 253.83C224.398 248.372 226.92 241.694 228.249 237.7C229.578 233.707 231.361 229.083 231.361 229.083C231.361 229.083 232.717 227.788 237.273 224.832C241.829 221.876 243.633 219.652 246.887 216.696C250.141 213.74 251.179 213.143 252.806 213.733C254.433 214.323 267.722 228.527 271.153 233.266C274.583 238.005 274.109 238.012 278.99 241.551C283.872 245.09 291.872 256.196 294.082 257.376C296.293 258.555 298.829 258.562 299.113 256.637C299.398 254.711 294.672 237.849 292.455 235.924C290.238 233.998 285.675 232.819 283.729 229.415C281.784 226.011 269.661 194.634 269.363 193.908C269.064 193.183 259.301 200.858 244.507 199.82C229.713 198.783 227.808 198.329 227.808 198.329V200.403Z" fill="white" stroke="#263238" stroke-linecap="round" stroke-linejoin="round"/>
<path d="M269.363 193.908C269.064 193.162 259.301 200.858 244.507 199.82C229.713 198.783 227.808 198.329 227.808 198.329V200.403C227.808 200.403 226.045 203.332 223.855 207.183C225.991 206.35 228.305 206.077 230.577 206.39C232.848 206.703 235.002 207.593 236.832 208.973C240.134 211.489 242.107 216.058 243.273 220.092C244.426 219.008 245.531 217.902 246.887 216.669C250.141 213.706 251.179 213.116 252.806 213.706C253.45 213.943 255.925 216.309 258.908 219.367C261.43 219.414 264.745 218.77 268.658 216.37C272.278 214.153 273.817 210.363 274.366 206.593C271.681 199.868 269.485 194.2 269.363 193.908Z" fill="#263238" stroke="#263238" stroke-linecap="round" stroke-linejoin="round"/>
<path d="M236.581 144.638C236.581 144.638 234.093 145.675 228.072 145.777C222.052 145.878 219.977 145.363 216.031 145.987C212.085 146.611 210.424 146.712 210.424 146.712C210.424 146.712 201.393 143.492 199.63 142.875C197.868 142.258 196.308 141.417 191.013 139.553C185.718 137.688 171.812 131.973 169.317 130.834C166.822 129.695 157.377 134.359 157.899 135.085C158.421 135.81 163.818 139.343 166.103 139.654C168.388 139.966 174.714 139.343 175.236 139.444C175.758 139.546 179.806 143.512 185.718 146.814C191.63 150.116 195.372 152.631 199.007 153.594C201.498 154.199 204.032 154.616 206.587 154.842C206.587 154.842 212.912 158.998 216.133 159.927C219.353 160.856 223.503 162.11 223.503 162.11C223.503 162.11 224.649 174.565 224.649 182.558C224.585 188.077 224.202 193.587 223.503 199.061C223.503 199.061 229.605 205.163 245.612 204.668C255.309 204.255 264.528 200.347 271.566 193.664C271.566 193.664 270.42 188.579 267.498 177.263C264.576 165.947 263.966 159.635 263.966 159.635C263.966 159.635 265.627 163.269 273.722 169.29C281.817 175.31 283.892 177.182 284.835 176.87C285.777 176.558 303.934 152.265 306.422 147.716C308.91 143.166 309.331 142.109 309.331 142.109C309.331 142.109 311.921 140.034 312.965 138.041C313.565 137.029 313.92 135.892 314.002 134.719C314.206 133.681 314.002 132.847 315.358 130.881C316.714 128.915 318.572 126 318.47 125.064C318.368 124.128 315.758 124.549 311.826 127.776C307.893 131.003 306.531 136.183 305.914 138.57C305.297 140.956 305.181 141.478 305.181 141.478C305.181 141.478 292.103 155.594 289.092 159.228C286.082 162.862 284.841 164.212 284.841 164.212C284.841 164.212 277.302 157.296 273.851 152.943C270.4 148.59 266.481 144.739 262.325 143.804C258.169 142.868 251.118 142.563 250.284 142.563H244.182C243.748 142.563 236.581 144.638 236.581 144.638Z" fill="white" stroke="#263238" stroke-linecap="round" stroke-linejoin="round"/>
<path d="M263.986 159.581C263.986 159.581 265.24 162.293 270.834 166.951C271.6 165.48 273.18 163.412 276.441 161.039C277.58 160.211 278.536 159.52 279.363 158.93C277.414 157.04 275.574 155.041 273.851 152.943C270.42 148.584 266.481 144.739 262.325 143.804C258.169 142.868 251.118 142.563 250.284 142.563H244.182C243.768 142.563 236.602 144.638 236.602 144.638C236.602 144.638 234.113 145.675 228.093 145.777C222.072 145.879 219.997 145.363 216.051 145.987C214.424 146.245 213.19 146.407 212.302 146.523C212.881 148.507 213.198 150.558 213.245 152.625C213.254 154.525 212.963 156.415 212.384 158.225C213.585 158.896 214.847 159.452 216.153 159.886C219.374 160.822 223.523 162.069 223.523 162.069C223.523 162.069 224.669 174.524 224.669 182.518C224.605 188.036 224.222 193.546 223.523 199.02C223.523 199.02 229.625 205.122 245.633 204.627C255.329 204.215 264.548 200.306 271.586 193.623C271.586 193.623 270.441 188.538 267.518 177.222C264.596 165.907 263.986 159.581 263.986 159.581Z" fill="white" stroke="#263238" stroke-linecap="round" stroke-linejoin="round"/>
<path d="M273.851 152.943C270.42 148.584 266.481 144.739 262.325 143.804C258.169 142.868 251.118 142.563 250.284 142.563H244.182C243.768 142.563 236.602 144.638 236.602 144.638C236.602 144.638 234.113 145.675 228.093 145.777C222.072 145.879 219.997 145.363 216.051 145.987C214.424 146.245 213.19 146.407 212.302 146.523C212.881 148.507 213.198 150.558 213.245 152.625C213.254 154.525 212.963 156.415 212.384 158.225C213.585 158.896 214.847 159.452 216.153 159.886C219.374 160.822 223.523 162.069 223.523 162.069C223.523 162.069 223.957 166.781 224.289 172.239C227.483 171.29 233.029 169.032 235.876 164.327C240.012 157.506 240.012 152.733 245.097 152.55C250.182 152.367 257.762 159.33 260.46 161.791C261.823 162.989 263.279 164.078 264.813 165.046C264.176 161.506 263.986 159.622 263.986 159.622C263.986 159.622 265.24 162.334 270.834 166.991C271.6 165.52 273.18 163.452 276.441 161.079C277.58 160.252 278.536 159.561 279.363 158.971C277.413 157.067 275.573 155.055 273.851 152.943Z" fill="#4A5CF9" stroke="#263238" stroke-linecap="round" stroke-linejoin="round"/>
<path d="M225.096 166.049C225.096 166.049 230.052 180.016 234.968 187.596" stroke="#263238" stroke-linecap="round" stroke-linejoin="round"/>
<path d="M236.086 189.25C236.715 190.124 237.455 190.91 238.29 191.589" stroke="#263238" stroke-linecap="round" stroke-linejoin="round"/>
<path d="M235.266 143.289C235.266 143.289 233.191 144.645 232.981 146.679C232.771 148.713 233.191 163.079 233.191 163.079C233.191 163.079 237.653 158.822 239.212 157.893C240.771 156.964 244.195 156.333 244.195 156.333C244.195 156.333 248.141 155.499 249.382 155.811C250.623 156.123 257.518 159.445 257.518 159.445C257.518 159.445 253.884 146.99 251.809 143.98C249.735 140.97 244.019 140.658 241.321 141.072C239.209 141.527 237.172 142.273 235.266 143.289Z" fill="#4A5CF9" stroke="#263238" stroke-linecap="round" stroke-linejoin="round"/>
<path d="M244.785 163.012L246.134 173.493L247.999 172.978L245.721 162.7" stroke="#263238" stroke-linecap="round" stroke-linejoin="round"/>
<path d="M143.682 124.501L171.683 141.655C172.079 141.899 172.554 141.98 173.009 141.88C173.463 141.78 173.861 141.507 174.117 141.119C174.257 140.908 174.35 140.671 174.391 140.421C174.433 140.172 174.421 139.917 174.357 139.672C174.293 139.428 174.178 139.2 174.02 139.003C173.862 138.806 173.664 138.644 173.439 138.529L144.285 123.566L143.682 124.501Z" fill="white" stroke="#263238" stroke-linecap="round" stroke-linejoin="round"/>
<path d="M145.621 120.745C143.431 127.444 135.139 130.752 127.098 128.122C119.057 125.491 114.324 117.952 116.514 111.226C118.704 104.5 126.996 101.225 135.037 103.849C143.078 106.473 147.804 114.04 145.621 120.745Z" fill="white" stroke="#263238" stroke-linecap="round" stroke-linejoin="round"/>
<path d="M144.733 117.24C144.73 118.278 144.565 119.31 144.244 120.298C144.163 120.555 144.068 120.793 143.967 121.037C143.905 121.194 143.835 121.348 143.756 121.498C143.505 122.024 143.205 122.525 142.861 122.996C142.692 123.233 142.522 123.457 142.333 123.674C141.907 124.17 141.434 124.624 140.922 125.03L140.773 125.145C140.258 125.545 139.709 125.899 139.132 126.203C138.588 126.497 138.022 126.746 137.437 126.949C137.119 127.071 136.759 127.173 136.468 127.267C136.21 127.342 135.953 127.403 135.688 127.457C135.099 127.589 134.5 127.68 133.898 127.728C133.288 127.789 132.674 127.804 132.061 127.776C131.722 127.776 131.376 127.756 131.023 127.715C130.752 127.715 130.474 127.661 130.196 127.613C129.545 127.522 128.902 127.383 128.271 127.2C128.006 127.132 127.749 127.057 127.491 126.976C127.075 126.84 126.675 126.691 126.291 126.528C126.101 126.461 125.911 126.372 125.735 126.291C125.22 126.054 124.725 125.796 124.243 125.518C123.762 125.24 123.355 124.962 122.942 124.657C122.657 124.454 122.386 124.237 122.121 124.013C121.722 123.683 121.343 123.327 120.989 122.949C120.556 122.508 120.155 122.036 119.789 121.538C119.708 121.43 119.626 121.315 119.552 121.199C119.157 120.637 118.81 120.043 118.514 119.423C118.242 118.838 118.015 118.233 117.836 117.613C117.493 116.409 117.366 115.153 117.463 113.904C117.52 113.261 117.638 112.626 117.816 112.006C117.837 111.918 117.864 111.832 117.897 111.748V111.694C118.075 111.135 118.302 110.592 118.575 110.073C118.763 109.737 118.969 109.411 119.192 109.097C119.434 108.746 119.702 108.413 119.992 108.1C120.207 107.864 120.434 107.637 120.67 107.422C121.168 106.969 121.706 106.563 122.277 106.209L122.576 106.032C123.013 105.778 123.466 105.551 123.932 105.354C124.495 105.113 125.075 104.914 125.667 104.758C126.248 104.594 126.839 104.472 127.437 104.392C128.041 104.303 128.65 104.255 129.261 104.249C129.881 104.234 130.501 104.259 131.118 104.324C131.759 104.39 132.395 104.492 133.024 104.629C133.549 104.743 134.067 104.886 134.576 105.056L134.949 105.185C135.646 105.424 136.326 105.712 136.983 106.046C137.341 106.225 137.689 106.422 138.027 106.636C138.387 106.853 138.746 107.09 139.078 107.314C139.503 107.615 139.909 107.944 140.292 108.297C140.647 108.606 140.984 108.934 141.302 109.28C141.532 109.524 141.736 109.775 141.939 110.026C142.39 110.58 142.791 111.172 143.139 111.795C143.47 112.372 143.751 112.975 143.98 113.599C144.203 114.19 144.371 114.801 144.482 115.423C144.618 116.02 144.702 116.628 144.733 117.24Z" stroke="#263238" stroke-linecap="round" stroke-linejoin="round"/>
<path d="M119.769 121.532L119.701 121.179L119.348 119.335L118.996 117.511L118.63 115.667L118.277 113.823L117.925 111.985L117.87 111.741V111.734" stroke="#263238" stroke-width="0.5" stroke-linecap="round" stroke-linejoin="round"/>
<path d="M122.101 124.006L121.877 122.867L121.525 121.023L121.159 119.192L120.806 117.355L120.453 115.518L120.094 113.673L119.735 111.836L119.375 109.999L119.199 109.077" stroke="#263238" stroke-width="0.5" stroke-linecap="round" stroke-linejoin="round"/>
<path d="M124.23 125.511L124.047 124.555L123.688 122.718L123.335 120.881L122.976 119.036L122.623 117.206L122.264 115.369L121.904 113.524L121.552 111.687L121.186 109.843L120.833 108.012L120.711 107.375" stroke="#263238" stroke-width="0.5" stroke-linecap="round" stroke-linejoin="round"/>
<path d="M126.277 126.528V126.522L126.216 126.244L125.864 124.406L125.505 122.569L125.152 120.725L124.793 118.887L124.433 117.057L124.081 115.219L123.715 113.375L123.362 111.531L123.01 109.7L122.65 107.856L122.318 106.161L122.291 106.019" stroke="#263238" stroke-width="0.5" stroke-linecap="round" stroke-linejoin="round"/>
<path d="M123.993 105.293L124.108 105.87L124.467 107.707L124.82 109.545L125.179 111.389L125.538 113.219L125.891 115.063L126.257 116.908L126.61 118.738L126.962 120.576L127.322 122.413L127.681 124.257L128.04 126.094L128.257 127.2" stroke="#263238" stroke-width="0.5" stroke-linecap="round" stroke-linejoin="round"/>
<path d="M130.21 127.783L130.183 127.613L129.857 125.945L129.498 124.101L129.139 122.271L128.786 120.426L128.42 118.589L128.067 116.752L127.715 114.914L127.356 113.077L126.996 111.233L126.637 109.395L126.284 107.558L125.925 105.721L125.728 104.697" stroke="#263238" stroke-width="0.5" stroke-linecap="round" stroke-linejoin="round"/>
<path d="M127.498 104.331L127.742 105.565L128.095 107.409L128.461 109.246L128.813 111.084L129.173 112.921L129.525 114.765L129.891 116.609L130.244 118.433L130.596 120.277L130.956 122.115L131.315 123.959L131.668 125.789L132.027 127.634L132.054 127.783" stroke="#263238" stroke-width="0.5" stroke-linecap="round" stroke-linejoin="round"/>
<path d="M129.322 104.188L129.552 105.416L129.918 107.253L130.271 109.097L130.63 110.934L130.983 112.772L131.342 114.609L131.702 116.453L132.054 118.291L132.42 120.121L132.773 121.966L133.125 123.803L133.485 125.647L133.844 127.478L133.891 127.729" stroke="#263238" stroke-width="0.5" stroke-linecap="round" stroke-linejoin="round"/>
<path d="M131.179 104.263L131.376 105.266L131.729 107.104L132.088 108.941L132.447 110.785L132.8 112.623L133.159 114.467L133.519 116.297L133.878 118.135L134.23 119.979L134.583 121.816L134.949 123.654L135.302 125.491L135.661 127.335L135.681 127.457" stroke="#263238" stroke-width="0.5" stroke-linecap="round" stroke-linejoin="round"/>
<path d="M137.478 127.179L137.437 126.956L137.126 125.342L136.759 123.505L136.407 121.667L136.047 119.823L135.688 117.979L135.336 116.155L134.976 114.311L134.624 112.473L134.258 110.629L133.905 108.799L133.552 106.955L133.186 105.11L133.085 104.568" stroke="#263238" stroke-width="0.5" stroke-linecap="round" stroke-linejoin="round"/>
<path d="M135.01 104.968L135.037 105.131L135.363 106.799L135.715 108.643L136.081 110.487L136.434 112.318L136.793 114.162L137.153 115.999L137.505 117.836L137.865 119.667L138.217 121.511L138.583 123.355L138.936 125.193L139.132 126.203" stroke="#263238" stroke-width="0.5" stroke-linecap="round" stroke-linejoin="round"/>
<path d="M140.773 125.145L140.746 125.044L140.393 123.199L140.041 121.362L139.682 119.525L139.322 117.68L138.963 115.85L138.61 114.012L138.251 112.175L137.892 110.331L137.539 108.487L137.18 106.656L137.051 105.999" stroke="#263238" stroke-width="0.5" stroke-linecap="round" stroke-linejoin="round"/>
<path d="M139.153 107.28L139.349 108.344L139.715 110.175L140.068 112.019L140.421 113.863L140.787 115.701L141.139 117.531L141.499 119.369L141.851 121.213L142.21 123.057L142.333 123.674" stroke="#263238" stroke-width="0.5" stroke-linecap="round" stroke-linejoin="round"/>
<path d="M141.377 109.246L141.526 110.033L141.878 111.87L142.244 113.707L142.597 115.552L142.956 117.382L143.316 119.22L143.668 121.057L143.756 121.498" stroke="#263238" stroke-width="0.5" stroke-linecap="round" stroke-linejoin="round"/>
<path d="M122.291 106.019L122.61 105.985H122.623L124.108 105.87L125.925 105.721L127.742 105.565L129.552 105.415L131.376 105.266L133.186 105.11L134.637 104.995H134.644L135.01 104.968" stroke="#263238" stroke-width="0.5" stroke-linecap="round" stroke-linejoin="round"/>
<path d="M138.102 106.582H138.095L137.18 106.656L135.363 106.799L133.552 106.955L131.729 107.104L129.918 107.253L128.095 107.409L126.284 107.558L124.467 107.707L122.65 107.856L120.833 108.012L119.999 108.08" stroke="#263238" stroke-width="0.5" stroke-linecap="round" stroke-linejoin="round"/>
<path d="M118.582 110.06L119.375 109.999L121.186 109.843L123.01 109.7L124.82 109.544L126.637 109.395L128.461 109.246L130.271 109.097L132.088 108.941L133.905 108.799L135.715 108.643L137.539 108.487L139.349 108.344L140.366 108.263" stroke="#263238" stroke-width="0.5" stroke-linecap="round" stroke-linejoin="round"/>
<path d="M117.789 111.999L117.925 111.985L119.735 111.836L121.552 111.687L123.362 111.531L125.179 111.389L126.996 111.233L128.813 111.084L130.63 110.934L132.447 110.785L134.258 110.629L136.081 110.487L137.892 110.331L139.715 110.175L141.526 110.033L142.014 109.992" stroke="#263238" stroke-width="0.5" stroke-linecap="round" stroke-linejoin="round"/>
<path d="M117.436 113.897L118.277 113.823L120.094 113.674L121.904 113.524L123.715 113.375L125.538 113.219L127.356 113.077L129.173 112.921L130.983 112.772L132.8 112.623L134.624 112.473L136.434 112.318L138.251 112.175L140.068 112.019L141.878 111.87L143.214 111.762" stroke="#263238" stroke-width="0.5" stroke-linecap="round" stroke-linejoin="round"/>
<path d="M117.457 115.769L118.63 115.667L120.453 115.518L122.264 115.369L124.081 115.219L125.891 115.063L127.715 114.914L129.525 114.765L131.342 114.609L133.159 114.467L134.976 114.311L136.793 114.162L138.61 114.013L140.421 113.863L142.244 113.707L144.055 113.565" stroke="#263238" stroke-width="0.5" stroke-linecap="round" stroke-linejoin="round"/>
<path d="M117.809 117.606L118.996 117.511L120.806 117.355L122.623 117.206L124.433 117.057L126.257 116.908L128.067 116.752L129.891 116.609L131.702 116.453L133.519 116.297L135.336 116.155L137.153 115.999L138.963 115.85L140.787 115.701L142.597 115.552L144.556 115.389" stroke="#263238" stroke-width="0.5" stroke-linecap="round" stroke-linejoin="round"/>
<path d="M118.494 119.416L119.348 119.335L121.159 119.192L122.976 119.036L124.793 118.887L126.61 118.738L128.42 118.589L130.244 118.433L132.054 118.291L133.878 118.135L135.688 117.979L137.505 117.836L139.322 117.68L141.139 117.531L142.956 117.382L144.733 117.24" stroke="#263238" stroke-width="0.5" stroke-linecap="round" stroke-linejoin="round"/>
<path d="M119.525 121.193L119.701 121.179L121.525 121.023L123.335 120.881L125.152 120.725L126.962 120.576L128.786 120.426L130.596 120.277L132.42 120.121L134.23 119.979L136.047 119.823L137.865 119.667L139.682 119.525L141.499 119.369L143.316 119.22L144.55 119.118" stroke="#263238" stroke-width="0.5" stroke-linecap="round" stroke-linejoin="round"/>
<path d="M120.969 122.942L121.877 122.867L123.688 122.718L125.505 122.569L127.322 122.413L129.139 122.271L130.956 122.115L132.773 121.965L134.583 121.816L136.407 121.667L138.217 121.511L140.041 121.362L141.851 121.213L143.668 121.057L143.967 121.037" stroke="#263238" stroke-width="0.5" stroke-linecap="round" stroke-linejoin="round"/>
<path d="M122.921 124.65H122.928L124.047 124.555L125.864 124.406L127.681 124.257L129.498 124.101L131.315 123.959L133.125 123.803L134.949 123.654L136.759 123.504L138.583 123.355L140.393 123.199L142.211 123.057L142.861 122.996" stroke="#263238" stroke-width="0.5" stroke-linecap="round" stroke-linejoin="round"/>
<path d="M125.722 126.284L126.216 126.244L128.04 126.094L129.857 125.945L131.668 125.789L133.485 125.647L135.302 125.491L137.126 125.342L138.936 125.193L140.746 125.044L140.922 125.03" stroke="#263238" stroke-width="0.5" stroke-linecap="round" stroke-linejoin="round"/>
<path d="M137.478 127.179L136.468 127.267H136.461L135.661 127.335L133.844 127.478L132.027 127.634L131.017 127.715H131.01L130.21 127.783" stroke="#263238" stroke-width="0.5" stroke-linecap="round" stroke-linejoin="round"/>
<path d="M307.48 138.617C307.48 138.617 308.626 135.085 309.663 133.736C310.7 132.386 315.372 127.715 315.372 129.274C315.412 129.805 315.341 130.338 315.162 130.839C314.983 131.34 314.701 131.798 314.334 132.183C313.783 132.777 313.192 133.332 312.565 133.844C312.565 133.844 312.463 137.058 311.839 138.095C311.216 139.132 309.127 140.068 309.127 140.068" stroke="#263238" stroke-linecap="round" stroke-linejoin="round"/>
<path d="M309.554 130.854C309.554 130.854 313.622 127.634 315.372 126.786C317.121 125.939 316.409 129.498 315.372 130.854" stroke="#263238" stroke-linecap="round" stroke-linejoin="round"/>
<path d="M314.951 125.64C314.951 125.64 318.274 124.603 317.236 127.512" stroke="#263238" stroke-linecap="round" stroke-linejoin="round"/>
<path d="M250.284 115.782C250.284 115.782 260.352 104.256 266.373 107.646C272.393 111.036 272.081 119.274 275.404 119.376C278.726 119.477 286.821 115.436 290.143 120.108C293.466 124.779 290.564 129.966 292.015 131.315C293.466 132.664 296.584 130.278 296.584 130.278C296.584 130.278 293.872 139.621 291.079 144.292C288.286 148.963 278.197 151.452 276.238 148.028C274.278 144.604 275.512 141.695 273.119 142.421C270.725 143.146 266.169 145.018 263.05 143.146C259.932 141.275 261.694 137.546 260.46 133.078C259.227 128.61 258.691 129.966 256.203 129.552C253.714 129.139 251.219 124.128 251.219 123.532C251.219 122.935 250.284 115.782 250.284 115.782Z" fill="#263238" stroke="#263238" stroke-linecap="round" stroke-linejoin="round"/>
<path d="M230.459 115.05C230.459 115.05 229.835 116.196 227.964 121.593C226.093 126.989 225.998 132.596 227.761 136.231C229.523 139.865 231.395 144.428 232.846 144.739C234.089 144.898 235.349 144.863 236.581 144.638L244.887 162.076L248.209 142.563L248.107 137.993C248.107 137.993 252.677 137.315 253.891 134.956C254.853 133.098 254.711 130.942 253.986 130.006C253.26 129.071 251.43 128.962 251.43 128.962C252.447 125.562 252.624 121.965 251.945 118.48C250.806 112.772 245.511 109.551 240.215 109.45C234.92 109.348 232.432 112.351 230.459 115.05Z" fill="white" stroke="#263238" stroke-linecap="round" stroke-linejoin="round"/>
<path d="M251.945 118.481C250.806 112.772 245.511 109.551 240.215 109.45C238.674 109.391 237.138 109.676 235.72 110.284C235.781 110.541 236.256 110.961 238.554 111.002C241.944 111.111 244.575 109.551 246.012 113.287C247.45 117.023 244.758 119.328 245.097 121.593C245.436 123.857 247.687 126.779 248.731 128.339C249.019 128.768 249.46 129.071 249.964 129.187C250.467 129.303 250.996 129.222 251.443 128.962C252.456 125.56 252.628 121.964 251.945 118.481Z" fill="#263238" stroke="#263238" stroke-linecap="round" stroke-linejoin="round"/>
<path d="M234.195 124.393C234.195 124.393 233.781 126.779 233.259 127.2C232.737 127.62 230.873 128.027 231.184 128.962C231.573 129.715 232.144 130.359 232.846 130.834" stroke="#263238" stroke-linecap="round" stroke-linejoin="round"/>
<path d="M231.808 133.735C231.808 133.735 235.341 135.397 236.893 134.983C238.208 134.491 239.435 133.79 240.527 132.908" stroke="#263238" stroke-linecap="round" stroke-linejoin="round"/>
<path d="M239.388 131.871L241.666 133.112" stroke="#263238" stroke-linecap="round" stroke-linejoin="round"/>
<path d="M237.829 120.759C238.484 120.299 239.29 120.108 240.082 120.224C240.874 120.34 241.591 120.754 242.087 121.382" stroke="#263238" stroke-linecap="round" stroke-linejoin="round"/>
<path d="M233.469 121.179C233.469 121.179 230.459 120.033 229.211 122.108" stroke="#263238" stroke-linecap="round" stroke-linejoin="round"/>
<path d="M240.012 124.861C240.012 125.579 239.666 126.162 239.239 126.162C238.812 126.162 238.459 125.579 238.459 124.861C238.459 124.142 238.805 123.566 239.239 123.566C239.673 123.566 240.012 124.142 240.012 124.861Z" fill="#263238"/>
<path d="M230.825 126.311C231.256 126.311 231.605 125.732 231.605 125.016C231.605 124.301 231.256 123.721 230.825 123.721C230.394 123.721 230.045 124.301 230.045 125.016C230.045 125.732 230.394 126.311 230.825 126.311Z" fill="#263238"/>
<path d="M236.581 144.638L242.399 142.455L239.076 149.201L236.581 144.638Z" fill="#263238" stroke="#263238" stroke-linecap="round" stroke-linejoin="round"/>
<path d="M158.835 131.763C158.835 131.763 155.513 135.831 155.926 136.509C156.34 137.187 165.371 141.18 166.205 140.76C167.039 140.339 169.005 137.024 169.317 136.509C169.629 135.993 160.388 131.085 159.872 131.085C159.357 131.085 158.835 131.763 158.835 131.763Z" fill="white" stroke="#263238" stroke-linecap="round" stroke-linejoin="round"/>
<path d="M158.11 137.58L161.635 132.386" stroke="#263238" stroke-linecap="round" stroke-linejoin="round"/>
<path d="M161.12 139.132L164.646 133.634" stroke="#263238" stroke-linecap="round" stroke-linejoin="round"/>
<path d="M163.398 140.278L166.829 135.193" stroke="#263238" stroke-linecap="round" stroke-linejoin="round"/>
<path d="M173.473 132.698C173.473 132.698 166.693 128.962 164.544 128.027C162.395 127.091 158.442 130.102 156.55 130.834C154.659 131.566 153.54 132.285 156.448 132.8C159.357 133.315 162.883 131.763 162.883 131.763C162.883 131.763 165.995 135.498 168.903 135.709" fill="white"/>
<path d="M173.473 132.698C173.473 132.698 166.693 128.962 164.544 128.027C162.395 127.091 158.442 130.102 156.55 130.834C154.659 131.566 153.54 132.285 156.448 132.8C159.357 133.315 162.883 131.763 162.883 131.763C162.883 131.763 165.995 135.498 168.903 135.709" stroke="#263238" stroke-linecap="round" stroke-linejoin="round"/>
<path d="M200.424 270.671C200.424 270.671 202.2 266.976 204.715 266.678C207.231 266.379 211.224 269.783 211.495 272.149C211.767 274.515 210.139 276.59 209.577 276.895C209.014 277.2 206.024 276.149 204.247 274.522C202.471 272.895 200.424 270.671 200.424 270.671Z" fill="white" stroke="#263238" stroke-linecap="round" stroke-linejoin="round"/>
<path d="M208.709 274.814C208.709 274.814 201.929 269.783 199.685 268.305C197.44 266.827 193.176 261.057 190.81 260.467C188.443 259.877 187.698 264.603 188.884 268.603C190.071 272.603 193.325 277.478 196.43 279.106C199.535 280.733 203.21 283.987 205.454 283.397C207.699 282.807 210.485 278.651 210.627 276.888C210.77 275.126 208.709 274.814 208.709 274.814Z" fill="white" stroke="#263238" stroke-linecap="round" stroke-linejoin="round"/>
<path d="M188.884 268.603C190.064 272.597 193.325 277.478 196.43 279.106C199.535 280.733 203.21 283.987 205.454 283.397C206.451 283.126 207.57 282.143 208.512 280.97C207.806 279.809 206.802 278.858 205.603 278.217C202.491 276.59 198.498 272.448 196.43 267.268C194.362 262.088 190.81 260.488 190.81 260.488C188.437 259.871 187.698 264.603 188.884 268.603Z" fill="white" stroke="#263238" stroke-linecap="round" stroke-linejoin="round"/>
<path d="M98.3439 261.03C98.3439 261.03 95.5302 268.874 94.7912 269.905C94.0522 270.936 90.5062 272.129 90.6486 273.295C90.791 274.461 98.7846 273.742 101.008 273.146C103.232 272.549 103.524 270.041 105.002 268.264C106.48 266.488 109.883 263.383 109.748 262.203C109.612 261.023 104.717 258.813 103.537 258.501C102.358 258.189 98.6422 259.721 98.3439 261.03Z" fill="white" stroke="#263238" stroke-linecap="round" stroke-linejoin="round"/>
<path d="M77.631 198.471C77.631 198.471 69.0543 214.302 67.8678 221.523C66.6813 228.744 65.2033 242.676 66.5118 243.565C67.8203 244.453 98.0456 262.386 98.0456 262.386C98.0456 262.386 101.3 264.461 102.636 263.572C103.971 262.684 103.815 261.505 103.673 260.318C103.531 259.132 82.5126 238.127 82.5126 238.127C82.5126 238.127 79.1226 233.985 81.7736 229.401C84.4246 224.818 104.148 201.291 105.151 199.366C106.154 197.44 107.816 196.41 104.853 194.783C104.853 194.783 93.164 198.329 86.6552 199.074C80.1464 199.82 77.631 198.471 77.631 198.471Z" fill="white" stroke="#263238" stroke-linecap="round" stroke-linejoin="round"/>
<path d="M89.618 207.943C95.3878 213.712 101.747 200.695 101.747 200.695L96.954 196.973C93.5782 197.879 90.1502 198.579 86.6891 199.068C80.1803 199.807 77.6649 198.471 77.6649 198.471C77.6649 198.471 76.8106 200.044 75.6309 202.424C78.9802 202.722 85.5026 203.827 89.618 207.943Z" fill="#263238" stroke="#263238" stroke-linecap="round" stroke-linejoin="round"/>
<path d="M75.5631 145.661C75.5631 145.661 64.6134 149.357 62.098 151.723C59.5826 154.089 56.9181 161.215 56.9181 161.215L52.0365 165.5C49.2083 166.878 46.5373 168.558 44.07 170.51C40.2054 173.615 30.7337 183.06 30.7337 183.06C30.7337 183.06 22.4486 181.433 21.2417 182.762C20.0349 184.09 20.6519 189.128 20.9434 189.542C21.235 189.955 21.6824 190.43 22.1299 189.392C22.5774 188.355 22.4215 187.765 22.7198 186.877C23.0181 185.989 26.564 186.138 26.564 186.138C26.564 186.138 21.9808 190.281 22.7198 191.02C23.4588 191.759 24.9368 190.579 25.6759 189.989C26.4149 189.399 27.7505 188.213 28.1912 188.213C29.5418 188.081 30.8518 187.678 32.0423 187.026C32.8236 186.435 33.5642 185.791 34.2593 185.101C34.2593 185.101 49.7923 178.002 54.5248 174.748C59.2572 171.493 61.3048 169.717 61.3048 169.717L66.1864 167.941L69.0001 166.761C69.0001 166.761 75.0614 178.002 75.2105 187.325C75.3597 196.647 73.7325 199.603 73.7325 199.603C73.7325 199.603 84.9738 201.969 89.713 201.637C94.4522 201.305 96.9608 197.352 102.731 197.352H111.307C111.641 193.363 111.641 189.354 111.307 185.365C110.84 181.726 110.15 178.119 109.239 174.565C109.239 174.565 105.849 154.597 104.948 151.784C104.046 148.97 97.849 147.038 93.9979 146.163C90.1469 145.289 81.0346 142.109 75.5631 145.661Z" fill="white" stroke="#263238" stroke-linecap="round" stroke-linejoin="round"/>
<path d="M91.6859 198.179C91.6859 198.179 75.4139 223.625 73.9359 227.91C72.4579 232.195 70.6815 270.963 70.6815 270.963C70.6815 270.963 65.3524 275.709 62.837 278.36C60.3217 281.011 57.0673 281.614 58.2538 282.353C59.4403 283.092 64.9117 283.98 68.3153 283.092C71.7188 282.204 77.3395 280.285 78.0785 279.702C78.8175 279.119 78.9667 278.522 78.9667 276.312C78.9667 274.102 78.4378 275.207 78.37 273.058C78.2276 268.169 79.726 261.66 81.0346 256.04C82.5329 249.734 86.0653 236.954 86.0653 235.022C86.0636 233.885 86.1635 232.751 86.3636 231.632C86.3636 231.632 109.883 217.577 111.958 210.478C114.033 203.38 110.473 195.942 110.473 195.942C110.473 195.942 99.3812 193.298 91.6859 198.179Z" fill="white" stroke="#263238" stroke-linecap="round" stroke-linejoin="round"/>
<path d="M91.6859 198.179C91.6859 198.179 90.1198 200.627 87.9163 204.125C91.5571 202.647 99.6863 200.315 104.412 206.607C107.124 210.193 108.039 213.285 108.249 215.631C110.141 213.733 111.524 211.943 111.958 210.458C114.026 203.352 110.473 195.955 110.473 195.955C110.473 195.955 99.3812 193.298 91.6859 198.179Z" fill="#263238" stroke="#263238" stroke-linecap="round" stroke-linejoin="round"/>
<path d="M62.837 278.36C60.3217 281.024 57.0673 281.614 58.2538 282.353C59.4403 283.092 64.9117 283.98 68.3153 283.092C71.7188 282.204 77.3395 280.285 78.0785 279.702C78.8175 279.119 78.9667 278.522 78.9667 276.312C78.9667 274.102 78.4853 275.105 78.3836 273.315L75.258 273.912C74.9091 272.907 74.4109 271.961 73.78 271.105C72.424 269.03 70.6747 270.956 70.6747 270.956C70.6747 270.956 65.3524 275.695 62.837 278.36Z" fill="white" stroke="#263238" stroke-linecap="round" stroke-linejoin="round"/>
<path d="M89.7672 201.725C94.5132 201.434 97.015 197.44 102.785 197.44H111.361C111.695 193.452 111.695 189.442 111.361 185.453C110.895 181.814 110.204 178.207 109.294 174.653C109.294 174.653 105.904 154.686 105.002 151.872C104.1 149.058 97.9032 147.126 94.0522 146.251C90.2011 145.377 81.0346 142.109 75.5631 145.661C75.5631 145.661 64.6134 149.357 62.098 151.723C59.5826 154.089 56.9181 161.215 56.9181 161.215L56.6537 161.445C56.951 162.768 57.5496 164.005 58.4029 165.059C59.9691 166.998 62.7557 168.076 64.6202 168.605L66.2406 168.015L69.0543 166.835C69.0543 166.835 75.1156 178.077 75.2648 187.399C75.4139 196.722 73.7867 199.678 73.7867 199.678C73.7867 199.678 85.028 202.044 89.7672 201.725Z" fill="white" stroke="#263238" stroke-linecap="round" stroke-linejoin="round"/>
<path d="M81.7736 160.598L83.2516 168.883L85.4755 168.442L83.5499 159.71" stroke="#263238" stroke-linecap="round" stroke-linejoin="round"/>
<path d="M81.9973 196.152C79.6921 197.033 78.2276 197.44 78.2276 197.44" stroke="#263238" stroke-linecap="round" stroke-linejoin="round"/>
<path d="M97.3066 187.67C93.5666 190.548 89.4886 192.957 85.1636 194.844" stroke="#263238" stroke-linecap="round" stroke-linejoin="round"/>
<path d="M99.2999 189.352C96.5879 191.454 92.8792 194.023 89.3197 195.366" stroke="#263238" stroke-linecap="round" stroke-linejoin="round"/>
<path d="M103.225 186.043C103.225 186.043 102.548 186.721 101.341 187.697" stroke="#263238" stroke-linecap="round" stroke-linejoin="round"/>
<path d="M105.002 151.872C104.114 149.058 97.9032 147.126 94.0522 146.251C90.2011 145.377 81.0346 142.109 75.5631 145.661C75.5631 145.661 64.6134 149.357 62.098 151.723C59.5826 154.089 56.9181 161.215 56.9181 161.215L56.6537 161.445C56.951 162.768 57.5496 164.005 58.4029 165.059C59.9691 166.998 62.7557 168.076 64.6202 168.605L66.2406 168.015L69.0543 166.835C69.0543 166.835 66.2406 158.252 66.6881 157.072C67.1356 155.893 79.2582 148.19 79.2582 148.19C79.2582 148.19 81.1837 149.228 82.9601 149.967C84.7364 150.706 86.8043 151.594 86.8043 151.594L108.907 172.422C107.985 167.1 105.707 154.103 105.002 151.872Z" fill="#4A5CF9" stroke="#263238" stroke-linecap="round" stroke-linejoin="round"/>
<path d="M61.359 169.771C61.359 169.771 56.0367 170.808 54.9994 166.964" stroke="#263238" stroke-linecap="round" stroke-linejoin="round"/>
<path d="M77.7802 142.848C77.7802 142.848 74.9732 143.438 74.3902 145.512C73.8071 147.587 71.5832 158.53 72.9121 158.232C74.241 157.933 81.638 154.089 82.8245 153.35C84.011 152.611 91.2588 159.418 92.147 158.679C93.0352 157.94 94.9539 149.357 93.1775 145.214C91.4012 141.071 83.8618 141.661 82.2346 142.109C80.7661 142.445 79.2786 142.692 77.7802 142.848Z" fill="#4A5CF9" stroke="#263238" stroke-linecap="round" stroke-linejoin="round"/>
<path d="M94.6488 117.701C94.6488 117.701 97.015 118.291 102.188 125.979C107.361 133.668 101.747 140.895 97.1642 142.109C92.5809 143.322 88.0654 143.071 86.9535 136.78C85.8416 130.488 91.53 116.813 94.6488 117.701Z" fill="#263238" stroke="#263238" stroke-linecap="round" stroke-linejoin="round"/>
<path d="M76.153 141.37C76.153 141.37 77.9293 149.946 79.109 152.17C80.2888 154.394 81.7736 158.679 82.3702 158.821C82.9669 158.964 89.0214 147.295 89.3197 146.543C89.618 145.79 88.879 139.146 88.879 139.146C88.879 139.146 84.75 142.699 76.153 141.37Z" fill="white" stroke="#263238" stroke-linecap="round" stroke-linejoin="round"/>
<path d="M84.1127 143.892L77.4615 141.532C77.0344 141.485 76.6004 141.438 76.153 141.37C76.153 141.37 77.3056 146.95 78.3768 150.272L84.1127 143.892Z" fill="#263238" stroke="#263238" stroke-linecap="round" stroke-linejoin="round"/>
<path d="M70.8307 131.01C70.8307 131.01 72.7494 138.556 74.0851 140.332C75.4207 142.109 80.1464 145.512 82.5126 145.363C84.8788 145.214 89.7672 141.071 90.6486 138.583C91.53 136.095 92.7233 127.342 92.7233 127.342C92.7233 127.342 89.4689 118.908 87.8417 117.28C86.2145 115.653 79.9972 115.355 77.0411 117.579C74.0851 119.802 70.8307 122.752 70.3832 124.528C69.9357 126.305 70.8307 131.01 70.8307 131.01Z" fill="white" stroke="#263238" stroke-linecap="round" stroke-linejoin="round"/>
<path d="M85.3263 118.291C85.3263 118.291 77.7802 125.071 75.2648 126.277C72.7494 127.484 72.0104 127.464 72.0104 127.464C72.0104 127.464 71.5697 130.271 70.8307 131.01C70.0916 131.749 68.6068 129.979 68.6068 129.979C68.6068 129.979 63.1354 125.688 62.837 122.433C62.5387 119.179 67.583 108.195 79.4074 108.378C91.2317 108.561 94.6488 112.67 94.6488 117.701C94.5711 120.993 93.9195 124.247 92.7233 127.315C92.5741 127.905 92.2758 131.159 91.2452 130.42C90.2147 129.681 89.0214 126.725 89.0214 126.725C89.0214 126.725 85.3263 119.918 85.3263 118.291Z" fill="#263238" stroke="#263238" stroke-linecap="round" stroke-linejoin="round"/>
<path d="M80.8854 133.973C80.8854 133.973 82.9601 134.264 83.5499 133.376" stroke="#263238" stroke-linecap="round" stroke-linejoin="round"/>
<path d="M77.4818 135.749C77.4818 135.749 79.8548 137.519 82.0719 137.227C83.5372 136.95 84.8805 136.225 85.9162 135.152" stroke="#263238" stroke-linecap="round" stroke-linejoin="round"/>
<path d="M77.2649 130.712C77.7966 130.712 78.2276 130.083 78.2276 129.308C78.2276 128.533 77.7966 127.905 77.2649 127.905C76.7332 127.905 76.3021 128.533 76.3021 129.308C76.3021 130.083 76.7332 130.712 77.2649 130.712Z" fill="#263238"/>
<path d="M85.8416 130.495C86.3733 130.495 86.8043 129.866 86.8043 129.091C86.8043 128.316 86.3733 127.688 85.8416 127.688C85.3099 127.688 84.8788 128.316 84.8788 129.091C84.8788 129.866 85.3099 130.495 85.8416 130.495Z" fill="#263238"/>
<path d="M75.258 126.277C75.258 126.277 77.3327 123.613 78.8107 125.24" stroke="#263238" stroke-linecap="round" stroke-linejoin="round"/>
<path d="M84.5873 125.538C84.5873 125.538 86.3636 123.762 87.9773 126.128" stroke="#263238" stroke-linecap="round" stroke-linejoin="round"/>
<path d="M70.8307 131.01C70.8307 131.01 69.6442 126.725 68.6068 129.979C67.5695 133.234 72.1595 135.749 72.1595 135.749L70.8307 131.01Z" fill="white" stroke="#263238" stroke-linecap="round" stroke-linejoin="round"/>
<path d="M92.5741 128.942C92.5741 128.942 94.0522 125.979 94.3505 129.383C94.4162 130.386 94.2018 131.387 93.7313 132.276C93.2608 133.164 92.5526 133.904 91.6859 134.413L92.5741 128.942Z" fill="white" stroke="#263238" stroke-linecap="round" stroke-linejoin="round"/>
<path d="M112.989 208.532C112.563 209.992 112.219 211.475 111.958 212.973C111.958 213.712 113.314 217.116 113.728 217.997C114.141 218.879 115.68 218.37 115.504 216.967C115.328 215.563 114.467 214.004 114.765 213.265" fill="white"/>
<path d="M112.989 208.532C112.563 209.992 112.219 211.475 111.958 212.973C111.958 213.712 113.314 217.116 113.728 217.997C114.141 218.879 115.68 218.37 115.504 216.967C115.328 215.563 114.467 214.004 114.765 213.265" stroke="#263238" stroke-linecap="round" stroke-linejoin="round"/>
<path d="M98.6422 147.879C98.6422 147.879 106.48 148.319 110.331 152.76C114.182 157.201 123.789 180.558 123.64 181.914C123.491 183.27 118.609 206.322 118.609 206.322C118.609 206.322 121.999 211.204 121.125 212.241C120.25 213.278 119.355 215.495 118.318 216.085C117.444 216.555 116.489 216.856 115.504 216.974C114.148 217.265 112.84 212.092 112.84 209.427C112.84 206.763 113.585 182.355 113.585 182.355L100.12 159.716" fill="#4A5CF9"/>
<path d="M98.6422 147.879C98.6422 147.879 106.48 148.319 110.331 152.76C114.182 157.201 123.789 180.558 123.64 181.914C123.491 183.27 118.609 206.322 118.609 206.322C118.609 206.322 121.999 211.204 121.125 212.241C120.25 213.278 119.355 215.495 118.318 216.085C117.444 216.555 116.489 216.856 115.504 216.974C114.148 217.265 112.84 212.092 112.84 209.427C112.84 206.763 113.585 182.355 113.585 182.355L100.12 159.716" stroke="#263238" stroke-linecap="round" stroke-linejoin="round"/>
<path d="M121.125 212.214C122.013 211.177 118.609 206.295 118.609 206.295C118.609 206.295 123.491 183.243 123.64 181.887C123.694 181.392 122.386 177.819 120.521 173.283L110.602 177.351L113.585 182.368C113.585 182.368 112.84 206.776 112.84 209.441C112.84 212.105 114.196 217.279 115.504 216.987C116.489 216.869 117.444 216.568 118.318 216.099C119.328 215.489 120.237 213.265 121.125 212.214Z" fill="white" stroke="#263238" stroke-linecap="round" stroke-linejoin="round"/>
<path d="M105.436 222.723L115.328 215.556C115.642 215.274 115.877 214.915 116.012 214.515C116.146 214.115 116.174 213.686 116.094 213.272C115.931 212.275 115.416 211.238 114.799 211.746L105.307 221.679L105.436 222.723Z" fill="white" stroke="#263238" stroke-linecap="round" stroke-linejoin="round"/>
<path d="M105.508 230.53C106.842 222.894 104.206 216.055 99.6211 215.254C95.0361 214.453 90.2379 219.993 88.9039 227.629C87.57 235.264 90.2054 242.103 94.7904 242.904C99.3753 243.706 104.174 238.165 105.508 230.53Z" fill="white" stroke="#263238" stroke-linecap="round" stroke-linejoin="round"/>
<path d="M102.134 218.031C102.473 218.379 102.78 218.758 103.049 219.163C103.236 219.442 103.406 219.732 103.558 220.031C103.666 220.241 103.768 220.445 103.856 220.655C103.944 220.865 103.978 220.933 104.032 221.075C104.231 221.579 104.396 222.096 104.527 222.621C104.595 222.886 104.656 223.15 104.71 223.421C104.832 224.051 104.918 224.687 104.968 225.326C104.968 225.394 104.968 225.462 104.968 225.523C105.005 226.171 105.005 226.821 104.968 227.469C104.954 228.084 104.907 228.697 104.826 229.306C104.826 229.639 104.744 229.984 104.683 230.296C104.643 230.554 104.595 230.805 104.541 231.062C104.419 231.625 104.283 232.188 104.12 232.737C103.958 233.286 103.775 233.815 103.564 234.33C103.456 234.615 103.334 234.9 103.205 235.185C103.103 235.402 103.002 235.625 102.893 235.863C102.647 236.354 102.373 236.832 102.073 237.293C101.958 237.483 101.836 237.666 101.714 237.842C101.592 238.019 101.307 238.385 101.103 238.636C101.008 238.758 100.907 238.873 100.805 238.988C100.531 239.293 100.242 239.582 99.9372 239.856C99.667 240.1 99.3817 240.326 99.0829 240.534C98.8912 240.667 98.692 240.79 98.4863 240.9C98.1992 241.066 97.8973 241.204 97.5845 241.314C97.2287 241.453 96.8578 241.551 96.4794 241.605L96.2285 241.639C95.8127 241.68 95.3933 241.666 94.981 241.598C94.5853 241.532 94.2 241.413 93.8352 241.246C93.4531 241.066 93.0954 240.838 92.7707 240.568C92.4156 240.281 92.0887 239.961 91.7944 239.612C91.4674 239.212 91.1769 238.783 90.9266 238.331C90.8864 238.265 90.8502 238.197 90.8181 238.127V238.08C90.5801 237.614 90.3718 237.134 90.1943 236.642C90.0791 236.31 89.9774 235.964 89.8825 235.605C89.7808 235.218 89.6858 234.818 89.618 234.405C89.5502 233.991 89.5163 233.768 89.4757 233.435C89.3997 232.76 89.3589 232.081 89.3536 231.401V231.062C89.3536 230.547 89.3536 230.039 89.4214 229.523C89.4892 229.008 89.5502 228.33 89.6587 227.733C89.7672 227.137 89.8757 226.588 90.0248 226.032C90.174 225.476 90.3299 224.933 90.5198 224.398C90.7096 223.862 90.913 223.347 91.1435 222.845C91.3694 222.343 91.623 221.854 91.9029 221.381C92.1077 221 92.3341 220.631 92.5809 220.275L92.764 220.025C93.0935 219.573 93.4537 219.145 93.842 218.743C94.0522 218.533 94.2623 218.336 94.4725 218.16C94.703 217.963 94.9403 217.787 95.1505 217.624C95.4292 217.42 95.7266 217.243 96.0387 217.096C96.3036 216.954 96.5804 216.836 96.8659 216.743C97.0625 216.675 97.2523 216.628 97.4489 216.58C97.8735 216.484 98.3093 216.448 98.7439 216.472C99.1497 216.489 99.5512 216.562 99.9372 216.689C100.327 216.814 100.698 216.989 101.042 217.211C101.436 217.442 101.802 217.717 102.134 218.031Z" stroke="#263238" stroke-linecap="round" stroke-linejoin="round"/>
<path d="M96.5201 241.598L96.3167 241.476L95.2522 240.826L94.1945 240.181L93.1301 239.531L92.0656 238.88L91.0012 238.229L90.8588 238.147H90.852" stroke="#263238" stroke-width="0.5" stroke-linecap="round" stroke-linejoin="round"/>
<path d="M98.527 240.893L97.8693 240.493L96.8048 239.842L95.7472 239.198L94.6827 238.547L93.6182 237.897L92.5538 237.252L91.4961 236.602L90.4249 235.957L89.896 235.625" stroke="#263238" stroke-width="0.5" stroke-linecap="round" stroke-linejoin="round"/>
<path d="M99.9779 239.849L99.4219 239.51L98.3642 238.866L97.2998 238.215L96.2353 237.564L95.1776 236.92L94.1132 236.269L93.0487 235.625L91.9843 234.974L90.9198 234.324L89.8553 233.679L89.4892 233.456" stroke="#263238" stroke-width="0.5" stroke-linecap="round" stroke-linejoin="round"/>
<path d="M101.144 238.629L100.981 238.527L99.9236 237.883L98.8524 237.232L97.7879 236.581L96.7235 235.93L95.6658 235.293L94.6013 234.642L93.5369 233.991L92.4724 233.34L91.4147 232.696L90.3503 232.045L89.3672 231.449L89.2858 231.395" stroke="#263238" stroke-width="0.5" stroke-linecap="round" stroke-linejoin="round"/>
<path d="M89.4418 229.564L89.774 229.767L90.8384 230.411L91.9029 231.062L92.9674 231.713L94.0318 232.357L95.0963 233.008L96.1607 233.659L97.2184 234.303L98.2829 234.954L99.3473 235.598L100.412 236.249L101.476 236.9L102.114 237.286" stroke="#263238" stroke-width="0.5" stroke-linecap="round" stroke-linejoin="round"/>
<path d="M103.029 235.917L102.934 235.856L101.964 235.266L100.9 234.615L99.8423 233.971L98.7778 233.32L97.7134 232.676L96.6489 232.025L95.5912 231.381L94.5268 230.73L93.4623 230.079L92.3911 229.435L91.3334 228.784L90.2689 228.133L89.6791 227.774" stroke="#263238" stroke-width="0.5" stroke-linecap="round" stroke-linejoin="round"/>
<path d="M90.0452 226.072L90.7571 226.506L91.8215 227.157L92.886 227.801L93.9505 228.452L95.0149 229.096L96.0794 229.747L97.1438 230.391L98.2015 231.042L99.266 231.693L100.33 232.337L101.395 232.988L102.459 233.639L103.524 234.283L103.605 234.337" stroke="#263238" stroke-width="0.5" stroke-linecap="round" stroke-linejoin="round"/>
<path d="M90.5401 224.438L91.252 224.879L92.3165 225.523L93.3809 226.174L94.4454 226.818L95.5099 227.469L96.5675 228.12L97.6388 228.764L98.6965 229.415L99.7609 230.052L100.825 230.71L101.89 231.361L102.954 232.005L104.012 232.656L104.161 232.744" stroke="#263238" stroke-width="0.5" stroke-linecap="round" stroke-linejoin="round"/>
<path d="M91.1639 222.886L91.747 223.238L92.8114 223.896L93.8691 224.533L94.9336 225.191L95.998 225.842L97.0625 226.486L98.1269 227.137L99.1914 227.774L100.256 228.432L101.32 229.083L102.378 229.727L103.442 230.378L104.507 231.022L104.582 231.069" stroke="#263238" stroke-width="0.5" stroke-linecap="round" stroke-linejoin="round"/>
<path d="M105.002 229.394L104.866 229.306L103.937 228.744L102.873 228.099L101.808 227.442L100.744 226.798L99.6796 226.147L98.6219 225.503L97.5574 224.859L96.493 224.208L95.4285 223.557L94.364 222.906L93.2996 222.255L92.2351 221.611L91.9232 221.421" stroke="#263238" stroke-width="0.5" stroke-linecap="round" stroke-linejoin="round"/>
<path d="M92.7301 219.977L92.825 220.045L93.7945 220.628L94.859 221.279L95.9234 221.923L96.9811 222.574L98.0456 223.218L99.11 223.869L100.175 224.52L101.232 225.164L102.297 225.815L103.368 226.459L104.432 227.116L105.009 227.469" stroke="#263238" stroke-width="0.5" stroke-linecap="round" stroke-linejoin="round"/>
<path d="M104.982 225.523L104.921 225.482L103.856 224.832L102.798 224.181H102.792L101.727 223.537L100.663 222.886L99.605 222.242L98.5405 221.591L97.4761 220.94L96.4116 220.296L95.3471 219.645L94.2827 219.001L93.903 218.763" stroke="#263238" stroke-width="0.5" stroke-linecap="round" stroke-linejoin="round"/>
<path d="M95.2319 217.638L95.8421 218.018L96.9065 218.662L97.971 219.313L99.0287 219.963L100.1 220.608L101.158 221.252L102.222 221.903L103.287 222.553L104.351 223.204L104.71 223.421" stroke="#263238" stroke-width="0.5" stroke-linecap="round" stroke-linejoin="round"/>
<path d="M96.9472 216.757L97.4015 217.035L98.4592 217.685L99.5236 218.33L100.588 218.98L101.653 219.625L102.71 220.269L103.775 220.926L104.032 221.075" stroke="#263238" stroke-width="0.5" stroke-linecap="round" stroke-linejoin="round"/>
<path d="M89.2858 231.395L89.3672 231.11L89.374 231.103L89.774 229.767L90.2689 228.133L90.7571 226.506L91.252 224.879L91.747 223.238L92.2351 221.611L92.6284 220.316V220.309L92.7301 219.977" stroke="#263238" stroke-width="0.5" stroke-linecap="round" stroke-linejoin="round"/>
<path d="M94.5335 218.174V218.18L94.2827 219.001L93.7945 220.628L93.2996 222.255L92.8114 223.896L92.3165 225.523L91.8215 227.157L91.3334 228.784L90.8384 230.411L90.3503 232.045L89.8553 233.679L89.6316 234.425" stroke="#263238" stroke-width="0.5" stroke-linecap="round" stroke-linejoin="round"/>
<path d="M90.2147 236.663L90.4249 235.958L90.9198 234.324L91.4147 232.696L91.9029 231.062L92.3911 229.435L92.886 227.801L93.3809 226.174L93.8691 224.533L94.364 222.906L94.859 221.279L95.3471 219.645L95.8421 218.018L96.1201 217.109" stroke="#263238" stroke-width="0.5" stroke-linecap="round" stroke-linejoin="round"/>
<path d="M90.9673 238.351L91.0012 238.229L91.4961 236.602L91.9843 234.974L92.4724 233.34L92.9674 231.713L93.4623 230.079L93.9505 228.452L94.4454 226.818L94.9336 225.191L95.4285 223.557L95.9234 221.923L96.4116 220.296L96.9065 218.662L97.4015 217.034L97.5303 216.594" stroke="#263238" stroke-width="0.5" stroke-linecap="round" stroke-linejoin="round"/>
<path d="M91.8351 239.632L92.0656 238.88L92.5538 237.252L93.0487 235.625L93.5369 233.991L94.0318 232.357L94.5268 230.73L95.0149 229.096L95.5099 227.469L95.998 225.842L96.493 224.208L96.9811 222.574L97.4761 220.94L97.971 219.313L98.4592 217.685L98.8253 216.485" stroke="#263238" stroke-width="0.5" stroke-linecap="round" stroke-linejoin="round"/>
<path d="M92.8114 240.588L93.1301 239.531L93.6182 237.897L94.1132 236.269L94.6013 234.642L95.0963 233.008L95.5912 231.381L96.0794 229.747L96.5675 228.12L97.0625 226.486L97.5574 224.859L98.0456 223.218L98.5405 221.591L99.0287 219.963L99.5236 218.329L100.019 216.702" stroke="#263238" stroke-width="0.5" stroke-linecap="round" stroke-linejoin="round"/>
<path d="M93.8759 241.239L94.1945 240.181L94.6827 238.547L95.1776 236.92L95.6658 235.293L96.1607 233.659L96.6489 232.025L97.1438 230.391L97.6388 228.764L98.1269 227.137L98.6219 225.503L99.11 223.869L99.605 222.242L100.1 220.608L100.588 218.98L101.124 217.224" stroke="#263238" stroke-width="0.5" stroke-linecap="round" stroke-linejoin="round"/>
<path d="M95.0217 241.592L95.2522 240.826L95.7472 239.198L96.2353 237.564L96.7235 235.93L97.2184 234.303L97.7134 232.676L98.2015 231.042L98.6965 229.415L99.1914 227.774L99.6796 226.147L100.175 224.52L100.663 222.886L101.158 221.252L101.653 219.624L102.134 218.031" stroke="#263238" stroke-width="0.5" stroke-linecap="round" stroke-linejoin="round"/>
<path d="M96.2692 241.632L96.3167 241.476L96.8048 239.842L97.2998 238.215L97.7879 236.581L98.2829 234.954L98.7778 233.32L99.266 231.693L99.7609 230.052L100.256 228.432L100.744 226.798L101.232 225.164L101.727 223.537L102.222 221.903L102.71 220.269L103.049 219.163" stroke="#263238" stroke-width="0.5" stroke-linecap="round" stroke-linejoin="round"/>
<path d="M97.6252 241.307L97.8693 240.493L98.3642 238.866L98.8524 237.232L99.3473 235.598L99.8423 233.971L100.33 232.337L100.825 230.71L101.32 229.083L101.808 227.442L102.297 225.815L102.798 224.181H102.792L103.287 222.553L103.775 220.926L103.856 220.655" stroke="#263238" stroke-width="0.5" stroke-linecap="round" stroke-linejoin="round"/>
<path d="M99.1236 240.527V240.52L99.4219 239.51L99.9236 237.883L100.412 236.249L100.9 234.615L101.395 232.988L101.89 231.361L102.378 229.727L102.873 228.099L103.368 226.459L103.856 224.831L104.351 223.204L104.527 222.621" stroke="#263238" stroke-width="0.5" stroke-linecap="round" stroke-linejoin="round"/>
<path d="M100.846 238.981L100.981 238.527L101.476 236.9L101.964 235.266L102.459 233.639L102.954 232.005L103.442 230.378L103.937 228.744L104.432 227.116L104.921 225.482L104.968 225.326" stroke="#263238" stroke-width="0.5" stroke-linecap="round" stroke-linejoin="round"/>
<path d="M105.002 229.394L104.724 230.296V230.303L104.507 231.022L104.012 232.656L103.524 234.283L103.246 235.191V235.198L103.029 235.917" stroke="#263238" stroke-width="0.5" stroke-linecap="round" stroke-linejoin="round"/>
<path d="M326.43 110.819H13.0312V116.311H326.43V110.819Z" fill="white"/>
<path d="M326.43 116.311H13.0312" stroke="#263238" stroke-linecap="round" stroke-linejoin="round"/>
<path d="M13.0312 110.819H326.43" stroke="#263238" stroke-linecap="round" stroke-linejoin="round"/>
<path d="M326.43 192.681H13.0312V193.298H326.43V192.681Z" fill="#263238" stroke="#263238" stroke-linecap="round" stroke-linejoin="round"/>
<path d="M26.2047 123.064V150.041" stroke="#263238" stroke-width="0.5" stroke-linecap="round" stroke-linejoin="round"/>
<path d="M30.049 119.152V155.404" stroke="#263238" stroke-width="0.5" stroke-linecap="round" stroke-linejoin="round"/>
<path d="M33.9 119.152V146.245" stroke="#263238" stroke-width="0.5" stroke-linecap="round" stroke-linejoin="round"/>
<path d="M37.751 119.152V155.404" stroke="#263238" stroke-width="0.5" stroke-linecap="round" stroke-linejoin="round"/>
<path d="M28.3472 122.935H35.9476" stroke="#263238" stroke-width="0.5" stroke-linecap="round" stroke-linejoin="round"/>
<path d="M32.5304 125.85H42.2801" stroke="#263238" stroke-width="0.5" stroke-linecap="round" stroke-linejoin="round"/>
<path d="M23.6622 125.85H30.8829" stroke="#263238" stroke-width="0.5" stroke-linecap="round" stroke-linejoin="round"/>
<path d="M23.7842 129.267H43.1683" stroke="#263238" stroke-width="0.5" stroke-linecap="round" stroke-linejoin="round"/>
<path d="M37.0866 133.2H43.1683" stroke="#263238" stroke-width="0.5" stroke-linecap="round" stroke-linejoin="round"/>
<path d="M24.2927 133.2H35.317" stroke="#263238" stroke-width="0.5" stroke-linecap="round" stroke-linejoin="round"/>
<path d="M18.089 133.2H22.3943" stroke="#263238" stroke-width="0.5" stroke-linecap="round" stroke-linejoin="round"/>
<path d="M21.635 137.125H43.1683" stroke="#263238" stroke-width="0.5" stroke-linecap="round" stroke-linejoin="round"/>
<path d="M23.7842 141.051H43.1683" stroke="#263238" stroke-width="0.5" stroke-linecap="round" stroke-linejoin="round"/>
<path d="M19.7366 144.977H43.1683" stroke="#263238" stroke-width="0.5" stroke-linecap="round" stroke-linejoin="round"/>
<path d="M35.0594 148.902H43.1683" stroke="#263238" stroke-width="0.5" stroke-linecap="round" stroke-linejoin="round"/>
<path d="M23.7842 148.902H31.3846" stroke="#263238" stroke-width="0.5" stroke-linecap="round" stroke-linejoin="round"/>
<path d="M41.9004 131.295V142.821" stroke="#263238" stroke-width="0.5" stroke-linecap="round" stroke-linejoin="round"/>
<path d="M136.231 151.357V178.341" stroke="#263238" stroke-width="0.5" stroke-linecap="round" stroke-linejoin="round"/>
<path d="M140.082 147.445V183.697" stroke="#263238" stroke-width="0.5" stroke-linecap="round" stroke-linejoin="round"/>
<path d="M143.933 147.445V174.538" stroke="#263238" stroke-width="0.5" stroke-linecap="round" stroke-linejoin="round"/>
<path d="M147.784 147.445V183.697" stroke="#263238" stroke-width="0.5" stroke-linecap="round" stroke-linejoin="round"/>
<path d="M138.38 151.228H145.98" stroke="#263238" stroke-width="0.5" stroke-linecap="round" stroke-linejoin="round"/>
<path d="M142.556 154.143H152.313" stroke="#263238" stroke-width="0.5" stroke-linecap="round" stroke-linejoin="round"/>
<path d="M133.688 154.143H140.909" stroke="#263238" stroke-width="0.5" stroke-linecap="round" stroke-linejoin="round"/>
<path d="M133.817 157.567H153.201" stroke="#263238" stroke-width="0.5" stroke-linecap="round" stroke-linejoin="round"/>
<path d="M147.119 161.493H153.201" stroke="#263238" stroke-width="0.5" stroke-linecap="round" stroke-linejoin="round"/>
<path d="M134.325 161.493H145.343" stroke="#263238" stroke-width="0.5" stroke-linecap="round" stroke-linejoin="round"/>
<path d="M128.115 161.493H132.427" stroke="#263238" stroke-width="0.5" stroke-linecap="round" stroke-linejoin="round"/>
<path d="M131.668 165.418H153.201" stroke="#263238" stroke-width="0.5" stroke-linecap="round" stroke-linejoin="round"/>
<path d="M133.817 169.344H153.201" stroke="#263238" stroke-width="0.5" stroke-linecap="round" stroke-linejoin="round"/>
<path d="M129.762 173.27H153.201" stroke="#263238" stroke-width="0.5" stroke-linecap="round" stroke-linejoin="round"/>
<path d="M145.092 177.195H153.201" stroke="#263238" stroke-width="0.5" stroke-linecap="round" stroke-linejoin="round"/>
<path d="M133.817 177.195H141.417" stroke="#263238" stroke-width="0.5" stroke-linecap="round" stroke-linejoin="round"/>
<path d="M151.933 159.588V171.12" stroke="#263238" stroke-width="0.5" stroke-linecap="round" stroke-linejoin="round"/>
<path d="M297.744 151.357V178.341" stroke="#263238" stroke-width="0.5" stroke-linecap="round" stroke-linejoin="round"/>
<path d="M301.595 147.445V183.697" stroke="#263238" stroke-width="0.5" stroke-linecap="round" stroke-linejoin="round"/>
<path d="M305.439 147.445V174.538" stroke="#263238" stroke-width="0.5" stroke-linecap="round" stroke-linejoin="round"/>
<path d="M309.29 147.445V183.697" stroke="#263238" stroke-width="0.5" stroke-linecap="round" stroke-linejoin="round"/>
<path d="M299.886 151.228H307.487" stroke="#263238" stroke-width="0.5" stroke-linecap="round" stroke-linejoin="round"/>
<path d="M304.069 154.143H313.819" stroke="#263238" stroke-width="0.5" stroke-linecap="round" stroke-linejoin="round"/>
<path d="M295.201 154.143H302.422" stroke="#263238" stroke-width="0.5" stroke-linecap="round" stroke-linejoin="round"/>
<path d="M295.33 157.567H314.707" stroke="#263238" stroke-width="0.5" stroke-linecap="round" stroke-linejoin="round"/>
<path d="M308.626 161.493H314.707" stroke="#263238" stroke-width="0.5" stroke-linecap="round" stroke-linejoin="round"/>
<path d="M295.832 161.493H306.856" stroke="#263238" stroke-width="0.5" stroke-linecap="round" stroke-linejoin="round"/>
<path d="M289.628 161.493H293.933" stroke="#263238" stroke-width="0.5" stroke-linecap="round" stroke-linejoin="round"/>
<path d="M293.174 165.418H314.707" stroke="#263238" stroke-width="0.5" stroke-linecap="round" stroke-linejoin="round"/>
<path d="M295.33 169.344H314.707" stroke="#263238" stroke-width="0.5" stroke-linecap="round" stroke-linejoin="round"/>
<path d="M291.276 173.27H314.707" stroke="#263238" stroke-width="0.5" stroke-linecap="round" stroke-linejoin="round"/>
<path d="M306.598 177.195H314.707" stroke="#263238" stroke-width="0.5" stroke-linecap="round" stroke-linejoin="round"/>
<path d="M295.33 177.195H302.93" stroke="#263238" stroke-width="0.5" stroke-linecap="round" stroke-linejoin="round"/>
<path d="M313.439 159.588V171.12" stroke="#263238" stroke-width="0.5" stroke-linecap="round" stroke-linejoin="round"/>
<path d="M190.857 122.671V149.648" stroke="#263238" stroke-width="0.5" stroke-linecap="round" stroke-linejoin="round"/>
<path d="M194.708 118.758V155.011" stroke="#263238" stroke-width="0.5" stroke-linecap="round" stroke-linejoin="round"/>
<path d="M198.552 118.758V145.851" stroke="#263238" stroke-width="0.5" stroke-linecap="round" stroke-linejoin="round"/>
<path d="M202.403 118.758V155.011" stroke="#263238" stroke-width="0.5" stroke-linecap="round" stroke-linejoin="round"/>
<path d="M192.999 122.542H200.6" stroke="#263238" stroke-width="0.5" stroke-linecap="round" stroke-linejoin="round"/>
<path d="M197.183 125.457H206.932" stroke="#263238" stroke-width="0.5" stroke-linecap="round" stroke-linejoin="round"/>
<path d="M188.314 125.457H195.535" stroke="#263238" stroke-width="0.5" stroke-linecap="round" stroke-linejoin="round"/>
<path d="M188.443 128.874H207.821" stroke="#263238" stroke-width="0.5" stroke-linecap="round" stroke-linejoin="round"/>
<path d="M201.739 132.807H207.821" stroke="#263238" stroke-width="0.5" stroke-linecap="round" stroke-linejoin="round"/>
<path d="M188.945 132.807H199.969" stroke="#263238" stroke-width="0.5" stroke-linecap="round" stroke-linejoin="round"/>
<path d="M182.741 132.807H187.047" stroke="#263238" stroke-width="0.5" stroke-linecap="round" stroke-linejoin="round"/>
<path d="M186.287 136.732H207.821" stroke="#263238" stroke-width="0.5" stroke-linecap="round" stroke-linejoin="round"/>
<path d="M188.443 140.658H207.821" stroke="#263238" stroke-width="0.5" stroke-linecap="round" stroke-linejoin="round"/>
<path d="M184.389 144.583H207.821" stroke="#263238" stroke-width="0.5" stroke-linecap="round" stroke-linejoin="round"/>
<path d="M199.712 148.509H207.821" stroke="#263238" stroke-width="0.5" stroke-linecap="round" stroke-linejoin="round"/>
<path d="M188.443 148.509H196.044" stroke="#263238" stroke-width="0.5" stroke-linecap="round" stroke-linejoin="round"/>
<path d="M206.553 130.901V142.434" stroke="#263238" stroke-width="0.5" stroke-linecap="round" stroke-linejoin="round"/>
</svg>
