<svg width="775" height="707" viewBox="0 0 775 707" fill="none" xmlns="http://www.w3.org/2000/svg">
<path fill-rule="evenodd" clip-rule="evenodd" d="M2.12795 0C-7.37205 83 10.8155 320.8 142.016 390C222.156 432.269 292.267 415.677 358.651 399.966C428.114 383.527 493.496 368.054 562.016 422C624.842 471.464 658.981 529.171 686.077 574.973C714.977 623.823 735.865 659.13 775 656.447V0H2.12795Z" fill="#F6F7FF"/>
<path d="M655.36 428C655.36 428 612.92 293.56 520.69 252.06C439.29 215.42 348.17 231.48 310.07 315.53C296.5 345.48 278.86 377.79 257.71 402.39C234 430 202.17 449.19 201.2 516.08C200.23 582.97 259.29 662 314.77 679.08C370.25 696.16 438 662 495.17 629.48C552.34 596.96 702.58 596.43 655.36 428Z" fill="#4A5CF9"/>
<path opacity="0.7" d="M655.36 428C655.36 428 612.92 293.56 520.69 252.06C439.29 215.42 348.17 231.48 310.07 315.53C296.5 345.48 278.86 377.79 257.71 402.39C234 430 202.17 449.19 201.2 516.08C200.23 582.97 259.29 662 314.77 679.08C370.25 696.16 438 662 495.17 629.48C552.34 596.96 702.58 596.43 655.36 428Z" fill="white"/>
<path d="M209.99 601.23H660.76" stroke="#263238" stroke-linecap="round" stroke-linejoin="round"/>
<path d="M539.06 629.5C591.14 629.5 633.36 626.187 633.36 622.1C633.36 618.013 591.14 614.7 539.06 614.7C486.979 614.7 444.76 618.013 444.76 622.1C444.76 626.187 486.979 629.5 539.06 629.5Z" fill="#263238" stroke="#263238" stroke-linecap="round" stroke-linejoin="round"/>
<path d="M292.16 622.1C315.483 622.1 334.39 618.787 334.39 614.7C334.39 610.613 315.483 607.3 292.16 607.3C268.837 607.3 249.93 610.613 249.93 614.7C249.93 618.787 268.837 622.1 292.16 622.1Z" fill="#263238" stroke="#263238" stroke-linecap="round" stroke-linejoin="round"/>
<path d="M357.85 334.09L360.93 337.34C361.737 338.192 362.177 339.327 362.154 340.5C362.132 341.673 361.649 342.79 360.81 343.61C359.975 344.418 358.858 344.87 357.695 344.87C356.533 344.87 355.416 344.418 354.58 343.61L351.3 340.42L357.85 334.09Z" fill="white" stroke="#263238" stroke-width="0.5" stroke-linecap="round" stroke-linejoin="round"/>
<path d="M352.88 341.96L359.2 335.51L357.85 334.09L351.3 340.43L352.88 341.96Z" fill="#263238" stroke="#263238" stroke-width="0.5" stroke-linecap="round" stroke-linejoin="round"/>
<path d="M345.51 336.64L347.87 338.18L348.58 338.65L351.3 340.43L357.85 334.09L356.37 331.09L355.99 330.31L354.71 327.69L354.33 326.91L353.56 325.34C353.451 322.914 352.923 320.526 352 318.28C351.215 316.645 350.086 315.199 348.69 314.04L347.92 314.92L346.71 314.66L346.27 316.27H344.27L343.58 318.42L341 319L340.24 321.51L337.15 322.51L337.24 324.83L335 324.96L334.92 327.67L332.47 328.27L333.15 329.91L332.51 330.29C333.718 331.379 335.027 332.35 336.42 333.19C337.96 333.98 344.82 336.19 344.82 336.19L345.51 336.64ZM346.43 335.74L347.3 334.89L349.55 336.55L348.85 337.23L346.43 335.74ZM353.56 332.65L351.74 330.57L352.3 330.02L353.86 332.36L353.56 332.65ZM352.49 333.65L351.74 334.38L349.74 332.47L350.63 331.61L352.49 333.65ZM350.95 335.15L350.22 335.86L347.94 334.22L348.85 333.35L350.95 335.15ZM351.75 338.15L351.15 338.64L349.58 337.64L350.23 337.01L351.75 338.15ZM353.18 337.09L352.5 337.54L350.9 336.39L351.58 335.72L353.18 337.09ZM354.36 335.73L353.73 336.29L352.34 335L353.05 334.31L354.36 335.73ZM354.1 333.27L354.33 333.05L355.69 335.05L354.1 333.27ZM356.54 334.05L355.23 332.17L355.43 331.97L356.54 334.05ZM355 331.22L354.72 331.49L353.12 329.19L353.65 328.68L355 331.22ZM351.9 326.22L352.62 326.73L353.25 327.93L352.65 328.52L352.2 327.87L351.9 326.22ZM350.22 328.88L349.85 327.19L350.96 328.07L351.81 329.34L351.17 329.96L350.22 328.88ZM348.39 331.27L348.17 329.85L349.31 330.27L350.04 331.06L349.11 331.96L348.39 331.27ZM346.53 333.27L345.8 331.52L347.33 332.12L348.19 332.85L347.24 333.78L346.53 333.27ZM345.41 335.14L344.55 334.14L346.37 334.29L346.6 334.46L345.67 335.36L345.41 335.14Z" fill="white" stroke="#263238" stroke-width="0.5" stroke-linecap="round" stroke-linejoin="round"/>
<path d="M616.6 591.17C616.6 591.17 623.15 614.29 627.29 616.48C631.43 618.67 637.11 614.29 636.89 609.06C636.67 603.83 625.55 589.2 625.55 589.2L616.6 591.17Z" fill="white" stroke="#263238" stroke-linecap="round" stroke-linejoin="round"/>
<path d="M618.89 594.44C624.131 594.44 628.38 589.846 628.38 584.18C628.38 578.514 624.131 573.92 618.89 573.92C613.649 573.92 609.4 578.514 609.4 584.18C609.4 589.846 613.649 594.44 618.89 594.44Z" fill="white" stroke="#263238" stroke-linecap="round" stroke-linejoin="round"/>
<path d="M518 502.58C518 502.58 503.59 526.58 500.32 535.96C497.05 545.34 483.32 600.55 481.99 603.38C480.66 606.21 490.28 611.89 491.59 610.38C492.9 608.87 499.89 589.43 506.43 581.38C512.97 573.33 516.69 563.48 518.65 557.59C520.61 551.7 523.24 544.88 523.24 544.88C523.24 544.88 525.24 542.97 531.96 538.61C538.68 534.25 541.34 530.97 546.14 526.61C550.94 522.25 552.47 521.37 554.87 522.24C557.27 523.11 576.87 544.06 581.93 551.05C586.99 558.04 586.29 558.05 593.49 563.27C600.69 568.49 612.49 584.87 615.75 586.61C619.01 588.35 622.75 588.36 623.17 585.52C623.59 582.68 616.62 557.81 613.35 554.97C610.08 552.13 603.35 550.39 600.48 545.37C597.61 540.35 579.73 494.07 579.29 493C578.85 491.93 564.45 503.25 542.63 501.72C520.81 500.19 518 499.52 518 499.52V502.58Z" fill="white" stroke="#263238" stroke-linecap="round" stroke-linejoin="round"/>
<path d="M579.29 493C578.85 491.9 564.45 503.25 542.63 501.72C520.81 500.19 518 499.52 518 499.52V502.58C518 502.58 515.4 506.9 512.17 512.58C515.32 511.351 518.733 510.948 522.083 511.41C525.434 511.872 528.61 513.184 531.31 515.22C536.18 518.93 539.09 525.67 540.81 531.62C542.51 530.02 544.14 528.39 546.14 526.57C550.94 522.2 552.47 521.33 554.87 522.2C555.82 522.55 559.47 526.04 563.87 530.55C567.59 530.62 572.48 529.67 578.25 526.13C583.59 522.86 585.86 517.27 586.67 511.71C582.71 501.79 579.47 493.43 579.29 493Z" fill="#263238" stroke="#263238" stroke-linecap="round" stroke-linejoin="round"/>
<path d="M530.94 420.33C530.94 420.33 527.27 421.86 518.39 422.01C509.51 422.16 506.45 421.4 500.63 422.32C494.81 423.24 492.36 423.39 492.36 423.39C492.36 423.39 479.04 418.64 476.44 417.73C473.84 416.82 471.54 415.58 463.73 412.83C455.92 410.08 435.41 401.65 431.73 399.97C428.05 398.29 414.12 405.17 414.89 406.24C415.66 407.31 423.62 412.52 426.99 412.98C430.36 413.44 439.69 412.52 440.46 412.67C441.23 412.82 447.2 418.67 455.92 423.54C464.64 428.41 470.16 432.12 475.52 433.54C479.195 434.432 482.933 435.047 486.7 435.38C486.7 435.38 496.03 441.51 500.78 442.88C505.53 444.25 511.65 446.1 511.65 446.1C511.65 446.1 513.34 464.47 513.34 476.26C513.246 484.399 512.681 492.526 511.65 500.6C511.65 500.6 520.65 509.6 544.26 508.87C558.562 508.262 572.16 502.497 582.54 492.64C582.54 492.64 580.85 485.14 576.54 468.45C572.23 451.76 571.33 442.45 571.33 442.45C571.33 442.45 573.78 447.81 585.72 456.69C597.66 465.57 600.72 468.33 602.11 467.87C603.5 467.41 630.28 431.58 633.95 424.87C637.62 418.16 638.24 416.6 638.24 416.6C638.24 416.6 642.06 413.54 643.6 410.6C644.485 409.108 645.009 407.43 645.13 405.7C645.43 404.17 645.13 402.94 647.13 400.04C649.13 397.14 651.87 392.84 651.72 391.46C651.57 390.08 647.72 390.7 641.92 395.46C636.12 400.22 634.11 407.86 633.2 411.38C632.29 414.9 632.12 415.67 632.12 415.67C632.12 415.67 612.83 436.49 608.39 441.85C603.95 447.21 602.12 449.2 602.12 449.2C602.12 449.2 591 439 585.91 432.58C580.82 426.16 575.04 420.48 568.91 419.1C562.78 417.72 552.38 417.27 551.15 417.27H542.15C541.51 417.27 530.94 420.33 530.94 420.33Z" fill="white" stroke="#263238" stroke-linecap="round" stroke-linejoin="round"/>
<path d="M571.36 442.37C571.36 442.37 573.21 446.37 581.46 453.24C582.59 451.07 584.92 448.02 589.73 444.52C591.41 443.3 592.82 442.28 594.04 441.41C591.166 438.622 588.451 435.674 585.91 432.58C580.85 426.15 575.04 420.48 568.91 419.1C562.78 417.72 552.38 417.27 551.15 417.27H542.15C541.54 417.27 530.97 420.33 530.97 420.33C530.97 420.33 527.3 421.86 518.42 422.01C509.54 422.16 506.48 421.4 500.66 422.32C498.26 422.7 496.44 422.94 495.13 423.11C495.983 426.037 496.45 429.062 496.52 432.11C496.534 434.913 496.105 437.701 495.25 440.37C497.022 441.36 498.884 442.18 500.81 442.82C505.56 444.2 511.68 446.04 511.68 446.04C511.68 446.04 513.37 464.41 513.37 476.2C513.276 484.339 512.711 492.466 511.68 500.54C511.68 500.54 520.68 509.54 544.29 508.81C558.591 508.202 572.189 502.437 582.57 492.58C582.57 492.58 580.88 485.08 576.57 468.39C572.26 451.7 571.36 442.37 571.36 442.37Z" fill="white" stroke="#263238" stroke-linecap="round" stroke-linejoin="round"/>
<path d="M585.91 432.58C580.85 426.15 575.04 420.48 568.91 419.1C562.78 417.72 552.38 417.27 551.15 417.27H542.15C541.54 417.27 530.97 420.33 530.97 420.33C530.97 420.33 527.3 421.86 518.42 422.01C509.54 422.16 506.48 421.4 500.66 422.32C498.26 422.7 496.44 422.94 495.13 423.11C495.983 426.037 496.45 429.062 496.52 432.11C496.534 434.913 496.105 437.701 495.25 440.37C497.022 441.36 498.884 442.18 500.81 442.82C505.56 444.2 511.68 446.04 511.68 446.04C511.68 446.04 512.32 452.99 512.81 461.04C517.52 459.64 525.7 456.31 529.9 449.37C536 439.31 536 432.27 543.5 432C551 431.73 562.18 442 566.16 445.63C568.17 447.397 570.316 449.002 572.58 450.43C571.64 445.21 571.36 442.43 571.36 442.43C571.36 442.43 573.21 446.43 581.46 453.3C582.59 451.13 584.92 448.08 589.73 444.58C591.41 443.36 592.82 442.34 594.04 441.47C591.164 438.663 588.45 435.695 585.91 432.58Z" fill="#4A5CF9" stroke="#263238" stroke-linecap="round" stroke-linejoin="round"/>
<path d="M514 451.91C514 451.91 521.31 472.51 528.56 483.69" stroke="#263238" stroke-linecap="round" stroke-linejoin="round"/>
<path d="M530.21 486.13C531.136 487.418 532.229 488.578 533.46 489.58" stroke="#263238" stroke-linecap="round" stroke-linejoin="round"/>
<path d="M529 418.34C529 418.34 525.94 420.34 525.63 423.34C525.32 426.34 525.94 447.53 525.94 447.53C525.94 447.53 532.52 441.25 534.82 439.88C537.12 438.51 542.17 437.58 542.17 437.58C542.17 437.58 547.99 436.35 549.82 436.81C551.65 437.27 561.82 442.17 561.82 442.17C561.82 442.17 556.46 423.8 553.4 419.36C550.34 414.92 541.91 414.46 537.93 415.07C534.816 415.741 531.811 416.842 529 418.34Z" fill="#4A5CF9" stroke="#263238" stroke-linecap="round" stroke-linejoin="round"/>
<path d="M543.04 447.43L545.03 462.89L547.78 462.13L544.42 446.97" stroke="#263238" stroke-linecap="round" stroke-linejoin="round"/>
<path d="M393.92 390.63L435.22 415.93C435.804 416.291 436.505 416.41 437.175 416.262C437.845 416.115 438.432 415.712 438.81 415.14C439.016 414.829 439.153 414.479 439.214 414.111C439.275 413.743 439.258 413.367 439.164 413.007C439.069 412.646 438.9 412.31 438.667 412.019C438.433 411.728 438.141 411.49 437.81 411.32L394.81 389.25L393.92 390.63Z" fill="white" stroke="#263238" stroke-linecap="round" stroke-linejoin="round"/>
<path d="M396.78 385.09C393.55 394.97 381.32 399.85 369.46 395.97C357.6 392.09 350.62 380.97 353.85 371.05C357.08 361.13 369.31 356.3 381.17 360.17C393.03 364.04 400 375.2 396.78 385.09Z" fill="white" stroke="#263238" stroke-linecap="round" stroke-linejoin="round"/>
<path d="M395.47 379.92C395.466 381.452 395.223 382.973 394.75 384.43C394.63 384.81 394.49 385.16 394.34 385.52C394.249 385.752 394.145 385.979 394.03 386.2C393.659 386.976 393.218 387.716 392.71 388.41C392.46 388.76 392.21 389.09 391.93 389.41C391.302 390.141 390.605 390.811 389.85 391.41L389.63 391.58C388.871 392.17 388.061 392.692 387.21 393.14C386.408 393.573 385.572 393.941 384.71 394.24C384.24 394.42 383.71 394.57 383.28 394.71C382.9 394.82 382.52 394.91 382.13 394.99C381.26 395.185 380.378 395.318 379.49 395.39C378.59 395.479 377.684 395.502 376.78 395.46C376.28 395.46 375.77 395.43 375.25 395.37C374.85 395.37 374.44 395.29 374.03 395.22C373.07 395.085 372.121 394.881 371.19 394.61C370.8 394.51 370.42 394.4 370.04 394.28C369.427 394.08 368.837 393.86 368.27 393.62C367.99 393.52 367.71 393.39 367.45 393.27C366.69 392.92 365.96 392.54 365.25 392.13C364.54 391.72 363.94 391.31 363.33 390.86C362.91 390.56 362.51 390.24 362.12 389.91C361.53 389.423 360.973 388.899 360.45 388.34C359.811 387.69 359.22 386.995 358.68 386.26C358.56 386.1 358.44 385.93 358.33 385.76C357.748 384.931 357.236 384.054 356.8 383.14C356.398 382.277 356.064 381.384 355.8 380.47C355.293 378.694 355.107 376.842 355.25 375C355.333 374.052 355.507 373.115 355.77 372.2C355.801 372.071 355.841 371.944 355.89 371.82V371.74C356.152 370.915 356.486 370.115 356.89 369.35C357.166 368.853 357.47 368.373 357.8 367.91C358.157 367.392 358.551 366.901 358.98 366.44C359.297 366.091 359.631 365.757 359.98 365.44C360.713 364.772 361.507 364.173 362.35 363.65L362.79 363.39C363.434 363.014 364.103 362.68 364.79 362.39C365.621 362.034 366.476 361.74 367.35 361.51C368.206 361.269 369.078 361.088 369.96 360.97C370.851 360.839 371.75 360.769 372.65 360.76C373.565 360.737 374.48 360.774 375.39 360.87C376.334 360.967 377.273 361.117 378.2 361.32C378.974 361.488 379.739 361.698 380.49 361.95L381.04 362.14C382.068 362.493 383.071 362.917 384.04 363.41C384.568 363.674 385.082 363.964 385.58 364.28C386.11 364.6 386.64 364.95 387.13 365.28C387.757 365.725 388.355 366.209 388.92 366.73C389.443 367.185 389.941 367.669 390.41 368.18C390.75 368.54 391.05 368.91 391.35 369.28C392.015 370.097 392.607 370.97 393.12 371.89C393.608 372.74 394.023 373.63 394.36 374.55C394.689 375.422 394.937 376.322 395.1 377.24C395.3 378.121 395.424 379.018 395.47 379.92Z" stroke="#263238" stroke-linecap="round" stroke-linejoin="round"/>
<path d="M358.65 386.25L358.55 385.73L358.03 383.01L357.51 380.32L356.97 377.6L356.45 374.88L355.93 372.17L355.85 371.81V371.8" stroke="#263238" stroke-width="0.5" stroke-linecap="round" stroke-linejoin="round"/>
<path d="M362.09 389.9L361.76 388.22L361.24 385.5L360.7 382.8L360.18 380.09L359.66 377.38L359.13 374.66L358.6 371.95L358.07 369.24L357.81 367.88" stroke="#263238" stroke-width="0.5" stroke-linecap="round" stroke-linejoin="round"/>
<path d="M365.23 392.12L364.96 390.71L364.43 388L363.91 385.29L363.38 382.57L362.86 379.87L362.33 377.16L361.8 374.44L361.28 371.73L360.74 369.01L360.22 366.31L360.04 365.37" stroke="#263238" stroke-width="0.5" stroke-linecap="round" stroke-linejoin="round"/>
<path d="M368.25 393.62V393.61L368.16 393.2L367.64 390.49L367.11 387.78L366.59 385.06L366.06 382.35L365.53 379.65L365.01 376.94L364.47 374.22L363.95 371.5L363.43 368.8L362.9 366.08L362.41 363.58L362.37 363.37" stroke="#263238" stroke-width="0.5" stroke-linecap="round" stroke-linejoin="round"/>
<path d="M364.88 362.3L365.05 363.15L365.58 365.86L366.1 368.57L366.63 371.29L367.16 373.99L367.68 376.71L368.22 379.43L368.74 382.13L369.26 384.84L369.79 387.55L370.32 390.27L370.85 392.98L371.17 394.61" stroke="#263238" stroke-width="0.5" stroke-linecap="round" stroke-linejoin="round"/>
<path d="M374.05 395.47L374.01 395.22L373.53 392.76L373 390.04L372.47 387.34L371.95 384.62L371.41 381.91L370.89 379.2L370.37 376.49L369.84 373.78L369.31 371.06L368.78 368.35L368.26 365.64L367.73 362.93L367.44 361.42" stroke="#263238" stroke-width="0.5" stroke-linecap="round" stroke-linejoin="round"/>
<path d="M370.05 360.88L370.41 362.7L370.93 365.42L371.47 368.13L371.99 370.84L372.52 373.55L373.04 376.27L373.58 378.99L374.1 381.68L374.62 384.4L375.15 387.11L375.68 389.83L376.2 392.53L376.73 395.25L376.77 395.47" stroke="#263238" stroke-width="0.5" stroke-linecap="round" stroke-linejoin="round"/>
<path d="M372.74 360.67L373.08 362.48L373.62 365.19L374.14 367.91L374.67 370.62L375.19 373.33L375.72 376.04L376.25 378.76L376.77 381.47L377.31 384.17L377.83 386.89L378.35 389.6L378.88 392.32L379.41 395.02L379.48 395.39" stroke="#263238" stroke-width="0.5" stroke-linecap="round" stroke-linejoin="round"/>
<path d="M375.48 360.78L375.77 362.26L376.29 364.97L376.82 367.68L377.35 370.4L377.87 373.11L378.4 375.83L378.93 378.53L379.46 381.24L379.98 383.96L380.5 386.67L381.04 389.38L381.56 392.09L382.09 394.81L382.12 394.99" stroke="#263238" stroke-width="0.5" stroke-linecap="round" stroke-linejoin="round"/>
<path d="M384.77 394.58L384.71 394.25L384.25 391.87L383.71 389.16L383.19 386.45L382.66 383.73L382.13 381.01L381.61 378.32L381.08 375.6L380.56 372.89L380.02 370.17L379.5 367.47L378.98 364.75L378.44 362.03L378.29 361.23" stroke="#263238" stroke-width="0.5" stroke-linecap="round" stroke-linejoin="round"/>
<path d="M381.13 361.82L381.17 362.06L381.65 364.52L382.17 367.24L382.71 369.96L383.23 372.66L383.76 375.38L384.29 378.09L384.81 380.8L385.34 383.5L385.86 386.22L386.4 388.94L386.92 391.65L387.21 393.14" stroke="#263238" stroke-width="0.5" stroke-linecap="round" stroke-linejoin="round"/>
<path d="M389.63 391.58L389.59 391.43L389.07 388.71L388.55 386L388.02 383.29L387.49 380.57L386.96 377.87L386.44 375.16L385.91 372.45L385.38 369.73L384.86 367.01L384.33 364.31L384.14 363.34" stroke="#263238" stroke-width="0.5" stroke-linecap="round" stroke-linejoin="round"/>
<path d="M387.24 365.23L387.53 366.8L388.07 369.5L388.59 372.22L389.11 374.94L389.65 377.65L390.17 380.35L390.7 383.06L391.22 385.78L391.75 388.5L391.93 389.41" stroke="#263238" stroke-width="0.5" stroke-linecap="round" stroke-linejoin="round"/>
<path d="M390.52 368.13L390.74 369.29L391.26 372L391.8 374.71L392.32 377.43L392.85 380.13L393.38 382.84L393.9 385.55L394.03 386.2" stroke="#263238" stroke-width="0.5" stroke-linecap="round" stroke-linejoin="round"/>
<path d="M362.37 363.37L362.84 363.32H362.86L365.05 363.15L367.73 362.93L370.41 362.7L373.08 362.48L375.77 362.26L378.44 362.03L380.58 361.86H380.59L381.13 361.82" stroke="#263238" stroke-width="0.5" stroke-linecap="round" stroke-linejoin="round"/>
<path d="M385.69 364.2H385.68L384.33 364.31L381.65 364.52L378.98 364.75L376.29 364.97L373.62 365.19L370.93 365.42L368.26 365.64L365.58 365.86L362.9 366.08L360.22 366.31L358.99 366.41" stroke="#263238" stroke-width="0.5" stroke-linecap="round" stroke-linejoin="round"/>
<path d="M356.9 369.33L358.07 369.24L360.74 369.01L363.43 368.8L366.1 368.57L368.78 368.35L371.47 368.13L374.14 367.91L376.82 367.68L379.5 367.47L382.17 367.24L384.86 367.01L387.53 366.8L389.03 366.68" stroke="#263238" stroke-width="0.5" stroke-linecap="round" stroke-linejoin="round"/>
<path d="M355.73 372.19L355.93 372.17L358.6 371.95L361.28 371.73L363.95 371.5L366.63 371.29L369.31 371.06L371.99 370.84L374.67 370.62L377.35 370.4L380.02 370.17L382.71 369.96L385.38 369.73L388.07 369.5L390.74 369.29L391.46 369.23" stroke="#263238" stroke-width="0.5" stroke-linecap="round" stroke-linejoin="round"/>
<path d="M355.21 374.99L356.45 374.88L359.13 374.66L361.8 374.44L364.47 374.22L367.16 373.99L369.84 373.78L372.52 373.55L375.19 373.33L377.87 373.11L380.56 372.89L383.23 372.66L385.91 372.45L388.59 372.22L391.26 372L393.23 371.84" stroke="#263238" stroke-width="0.5" stroke-linecap="round" stroke-linejoin="round"/>
<path d="M355.24 377.75L356.97 377.6L359.66 377.38L362.33 377.16L365.01 376.94L367.68 376.71L370.37 376.49L373.04 376.27L375.72 376.04L378.4 375.83L381.08 375.6L383.76 375.38L386.44 375.16L389.11 374.94L391.8 374.71L394.47 374.5" stroke="#263238" stroke-width="0.5" stroke-linecap="round" stroke-linejoin="round"/>
<path d="M355.76 380.46L357.51 380.32L360.18 380.09L362.86 379.87L365.53 379.65L368.22 379.43L370.89 379.2L373.58 378.99L376.25 378.76L378.93 378.53L381.61 378.32L384.29 378.09L386.96 377.87L389.65 377.65L392.32 377.43L395.21 377.19" stroke="#263238" stroke-width="0.5" stroke-linecap="round" stroke-linejoin="round"/>
<path d="M356.77 383.13L358.03 383.01L360.7 382.8L363.38 382.57L366.06 382.35L368.74 382.13L371.41 381.91L374.1 381.68L376.77 381.47L379.46 381.24L382.13 381.01L384.81 380.8L387.49 380.57L390.17 380.35L392.85 380.13L395.47 379.92" stroke="#263238" stroke-width="0.5" stroke-linecap="round" stroke-linejoin="round"/>
<path d="M358.29 385.75L358.55 385.73L361.24 385.5L363.91 385.29L366.59 385.06L369.26 384.84L371.95 384.62L374.62 384.4L377.31 384.17L379.98 383.96L382.66 383.73L385.34 383.5L388.02 383.29L390.7 383.06L393.38 382.84L395.2 382.69" stroke="#263238" stroke-width="0.5" stroke-linecap="round" stroke-linejoin="round"/>
<path d="M360.42 388.33L361.76 388.22L364.43 388L367.11 387.78L369.79 387.55L372.47 387.34L375.15 387.11L377.83 386.89L380.5 386.67L383.19 386.45L385.86 386.22L388.55 386L391.22 385.78L393.9 385.55L394.34 385.52" stroke="#263238" stroke-width="0.5" stroke-linecap="round" stroke-linejoin="round"/>
<path d="M363.3 390.85H363.31L364.96 390.71L367.64 390.49L370.32 390.27L373 390.04L375.68 389.83L378.35 389.6L381.04 389.38L383.71 389.16L386.4 388.94L389.07 388.71L391.75 388.5L392.71 388.41" stroke="#263238" stroke-width="0.5" stroke-linecap="round" stroke-linejoin="round"/>
<path d="M367.43 393.26L368.16 393.2L370.85 392.98L373.53 392.76L376.2 392.53L378.88 392.32L381.56 392.09L384.25 391.87L386.92 391.65L389.59 391.43L389.85 391.41" stroke="#263238" stroke-width="0.5" stroke-linecap="round" stroke-linejoin="round"/>
<path d="M384.77 394.58L383.28 394.71H383.27L382.09 394.81L379.41 395.02L376.73 395.25L375.24 395.37H375.23L374.05 395.47" stroke="#263238" stroke-width="0.5" stroke-linecap="round" stroke-linejoin="round"/>
<path d="M635.51 411.45C635.51 411.45 637.2 406.24 638.73 404.25C640.26 402.26 647.15 395.37 647.15 397.67C647.209 398.452 647.104 399.239 646.841 399.978C646.577 400.717 646.161 401.392 645.62 401.96C644.807 402.836 643.935 403.654 643.01 404.41C643.01 404.41 642.86 409.15 641.94 410.68C641.02 412.21 637.94 413.59 637.94 413.59" stroke="#263238" stroke-linecap="round" stroke-linejoin="round"/>
<path d="M638.57 400C638.57 400 644.57 395.25 647.15 394C649.73 392.75 648.68 398 647.15 400" stroke="#263238" stroke-linecap="round" stroke-linejoin="round"/>
<path d="M646.53 392.31C646.53 392.31 651.43 390.78 649.9 395.07" stroke="#263238" stroke-linecap="round" stroke-linejoin="round"/>
<path d="M551.15 377.77C551.15 377.77 566 360.77 574.88 365.77C583.76 370.77 583.3 382.92 588.2 383.07C593.1 383.22 605.04 377.26 609.94 384.15C614.84 391.04 610.56 398.69 612.7 400.68C614.84 402.67 619.44 399.15 619.44 399.15C619.44 399.15 615.44 412.93 611.32 419.82C607.2 426.71 592.32 430.38 589.43 425.33C586.54 420.28 588.36 415.99 584.83 417.06C581.3 418.13 574.58 420.89 569.98 418.13C565.38 415.37 567.98 409.87 566.16 403.28C564.34 396.69 563.55 398.69 559.88 398.08C556.21 397.47 552.53 390.08 552.53 389.2C552.53 388.32 551.15 377.77 551.15 377.77Z" fill="#263238" stroke="#263238" stroke-linecap="round" stroke-linejoin="round"/>
<path d="M521.91 376.69C521.91 376.69 520.99 378.38 518.23 386.34C515.47 394.3 515.33 402.57 517.93 407.93C520.53 413.29 523.29 420.02 525.43 420.48C527.263 420.713 529.122 420.663 530.94 420.33L543.19 446.05L548.09 417.27L547.94 410.53C547.94 410.53 554.68 409.53 556.47 406.05C557.89 403.31 557.68 400.13 556.61 398.75C555.54 397.37 552.84 397.21 552.84 397.21C554.34 392.194 554.601 386.889 553.6 381.75C551.92 373.33 544.11 368.58 536.3 368.43C528.49 368.28 524.82 372.71 521.91 376.69Z" fill="white" stroke="#263238" stroke-linecap="round" stroke-linejoin="round"/>
<path d="M553.6 381.75C551.92 373.33 544.11 368.58 536.3 368.43C534.026 368.344 531.762 368.764 529.67 369.66C529.76 370.04 530.46 370.66 533.85 370.72C538.85 370.88 542.73 368.58 544.85 374.09C546.97 379.6 543 383 543.5 386.34C544 389.68 547.32 393.99 548.86 396.29C549.285 396.923 549.935 397.37 550.678 397.541C551.421 397.712 552.201 397.594 552.86 397.21C554.353 392.192 554.607 386.887 553.6 381.75Z" fill="#263238" stroke="#263238" stroke-linecap="round" stroke-linejoin="round"/>
<path d="M527.42 390.47C527.42 390.47 526.81 393.99 526.04 394.61C525.27 395.23 522.52 395.83 522.98 397.21C523.553 398.321 524.395 399.269 525.43 399.97" stroke="#263238" stroke-linecap="round" stroke-linejoin="round"/>
<path d="M523.9 404.25C523.9 404.25 529.11 406.7 531.4 406.09C533.339 405.364 535.149 404.331 536.76 403.03" stroke="#263238" stroke-linecap="round" stroke-linejoin="round"/>
<path d="M535.08 401.5L538.44 403.33" stroke="#263238" stroke-linecap="round" stroke-linejoin="round"/>
<path d="M532.78 385.11C533.746 384.432 534.935 384.15 536.103 384.321C537.271 384.492 538.329 385.104 539.06 386.03" stroke="#263238" stroke-linecap="round" stroke-linejoin="round"/>
<path d="M526.35 385.73C526.35 385.73 521.91 384.04 520.07 387.1" stroke="#263238" stroke-linecap="round" stroke-linejoin="round"/>
<path d="M536 391.16C536 392.22 535.49 393.08 534.86 393.08C534.23 393.08 533.71 392.22 533.71 391.16C533.71 390.1 534.22 389.25 534.86 389.25C535.5 389.25 536 390.1 536 391.16Z" fill="#263238"/>
<path d="M522.45 393.3C523.085 393.3 523.6 392.445 523.6 391.39C523.6 390.335 523.085 389.48 522.45 389.48C521.815 389.48 521.3 390.335 521.3 391.39C521.3 392.445 521.815 393.3 522.45 393.3Z" fill="#263238"/>
<path d="M530.94 420.33L539.52 417.11L534.62 427.06L530.94 420.33Z" fill="#263238" stroke="#263238" stroke-linecap="round" stroke-linejoin="round"/>
<path d="M416.27 401.34C416.27 401.34 411.37 407.34 411.98 408.34C412.59 409.34 425.91 415.23 427.14 414.61C428.37 413.99 431.27 409.1 431.73 408.34C432.19 407.58 418.56 400.34 417.8 400.34C417.04 400.34 416.27 401.34 416.27 401.34Z" fill="white" stroke="#263238" stroke-linecap="round" stroke-linejoin="round"/>
<path d="M415.2 409.92L420.4 402.26" stroke="#263238" stroke-linecap="round" stroke-linejoin="round"/>
<path d="M419.64 412.21L424.84 404.1" stroke="#263238" stroke-linecap="round" stroke-linejoin="round"/>
<path d="M423 413.9L428.06 406.4" stroke="#263238" stroke-linecap="round" stroke-linejoin="round"/>
<path d="M437.86 402.72C437.86 402.72 427.86 397.21 424.69 395.83C421.52 394.45 415.69 398.89 412.9 399.97C410.11 401.05 408.46 402.11 412.75 402.87C417.04 403.63 422.24 401.34 422.24 401.34C422.24 401.34 426.83 406.85 431.12 407.16" fill="white"/>
<path d="M437.86 402.72C437.86 402.72 427.86 397.21 424.69 395.83C421.52 394.45 415.69 398.89 412.9 399.97C410.11 401.05 408.46 402.11 412.75 402.87C417.04 403.63 422.24 401.34 422.24 401.34C422.24 401.34 426.83 406.85 431.12 407.16" stroke="#263238" stroke-linecap="round" stroke-linejoin="round"/>
<path d="M477.61 606.22C477.61 606.22 480.23 600.77 483.94 600.33C487.65 599.89 493.54 604.91 493.94 608.4C494.34 611.89 491.94 614.95 491.11 615.4C490.28 615.85 485.87 614.3 483.25 611.9C480.63 609.5 477.61 606.22 477.61 606.22Z" fill="white" stroke="#263238" stroke-linecap="round" stroke-linejoin="round"/>
<path d="M489.83 612.33C489.83 612.33 479.83 604.91 476.52 602.73C473.21 600.55 466.92 592.04 463.43 591.17C459.94 590.3 458.84 597.27 460.59 603.17C462.34 609.07 467.14 616.26 471.72 618.66C476.3 621.06 481.72 625.86 485.03 624.99C488.34 624.12 492.45 617.99 492.66 615.39C492.87 612.79 489.83 612.33 489.83 612.33Z" fill="white" stroke="#263238" stroke-linecap="round" stroke-linejoin="round"/>
<path d="M460.59 603.17C462.33 609.06 467.14 616.26 471.72 618.66C476.3 621.06 481.72 625.86 485.03 624.99C486.5 624.59 488.15 623.14 489.54 621.41C488.499 619.697 487.017 618.295 485.25 617.35C480.66 614.95 474.77 608.84 471.72 601.2C468.67 593.56 463.43 591.2 463.43 591.2C459.93 590.29 458.84 597.27 460.59 603.17Z" fill="white" stroke="#263238" stroke-linecap="round" stroke-linejoin="round"/>
<path d="M327.05 592C327.05 592 322.9 603.57 321.81 605.09C320.72 606.61 315.49 608.37 315.7 610.09C315.91 611.81 327.7 610.75 330.98 609.87C334.26 608.99 334.69 605.29 336.87 602.67C339.05 600.05 344.07 595.47 343.87 593.73C343.67 591.99 336.45 588.73 334.71 588.27C332.97 587.81 327.49 590.07 327.05 592Z" fill="white" stroke="#263238" stroke-linecap="round" stroke-linejoin="round"/>
<path d="M296.5 499.73C296.5 499.73 283.85 523.08 282.1 533.73C280.35 544.38 278.17 564.93 280.1 566.24C282.03 567.55 326.61 594 326.61 594C326.61 594 331.41 597.06 333.38 595.75C335.35 594.44 335.12 592.7 334.91 590.95C334.7 589.2 303.7 558.22 303.7 558.22C303.7 558.22 298.7 552.11 302.61 545.35C306.52 538.59 335.61 503.89 337.09 501.05C338.57 498.21 341.02 496.69 336.65 494.29C336.65 494.29 319.41 499.52 309.81 500.62C300.21 501.72 296.5 499.73 296.5 499.73Z" fill="white" stroke="#263238" stroke-linecap="round" stroke-linejoin="round"/>
<path d="M314.18 513.7C322.69 522.21 332.07 503.01 332.07 503.01L325 497.52C320.021 498.857 314.965 499.889 309.86 500.61C300.26 501.7 296.55 499.73 296.55 499.73C296.55 499.73 295.29 502.05 293.55 505.56C298.49 506 308.11 507.63 314.18 513.7Z" fill="#263238" stroke="#263238" stroke-linecap="round" stroke-linejoin="round"/>
<path d="M293.45 421.84C293.45 421.84 277.3 427.29 273.59 430.78C269.88 434.27 265.95 444.78 265.95 444.78L258.75 451.1C254.579 453.133 250.639 455.611 247 458.49C241.3 463.07 227.33 477 227.33 477C227.33 477 215.11 474.6 213.33 476.56C211.55 478.52 212.46 485.95 212.89 486.56C213.32 487.17 213.98 487.87 214.64 486.34C215.3 484.81 215.07 483.94 215.51 482.63C215.95 481.32 221.18 481.54 221.18 481.54C221.18 481.54 214.42 487.65 215.51 488.74C216.6 489.83 218.78 488.09 219.87 487.22C220.96 486.35 222.93 484.6 223.58 484.6C225.572 484.406 227.504 483.811 229.26 482.85C230.412 481.978 231.505 481.029 232.53 480.01C232.53 480.01 255.44 469.54 262.42 464.74C269.4 459.94 272.42 457.32 272.42 457.32L279.62 454.7L283.77 452.96C283.77 452.96 292.71 469.54 292.93 483.29C293.15 497.04 290.75 501.4 290.75 501.4C290.75 501.4 307.33 504.89 314.32 504.4C321.31 503.91 325.01 498.08 333.52 498.08H346.17C346.662 492.197 346.662 486.283 346.17 480.4C345.481 475.032 344.463 469.712 343.12 464.47C343.12 464.47 338.12 435.02 336.79 430.87C335.46 426.72 326.32 423.87 320.64 422.58C314.96 421.29 301.52 416.6 293.45 421.84Z" fill="white" stroke="#263238" stroke-linecap="round" stroke-linejoin="round"/>
<path d="M317.23 499.3C317.23 499.3 293.23 536.83 291.05 543.15C288.87 549.47 286.25 606.65 286.25 606.65C286.25 606.65 278.39 613.65 274.68 617.56C270.97 621.47 266.17 622.36 267.92 623.45C269.67 624.54 277.74 625.85 282.76 624.54C287.78 623.23 296.07 620.4 297.16 619.54C298.25 618.68 298.47 617.8 298.47 614.54C298.47 611.28 297.69 612.91 297.59 609.74C297.38 602.53 299.59 592.93 301.52 584.64C303.73 575.34 308.94 556.49 308.94 553.64C308.938 551.964 309.085 550.29 309.38 548.64C309.38 548.64 344.07 527.91 347.13 517.44C350.19 506.97 344.94 496 344.94 496C344.94 496 328.58 492.1 317.23 499.3Z" fill="white" stroke="#263238" stroke-linecap="round" stroke-linejoin="round"/>
<path d="M317.23 499.3C317.23 499.3 314.92 502.91 311.67 508.07C317.04 505.89 329.03 502.45 336 511.73C340 517.02 341.35 521.58 341.66 525.04C344.45 522.24 346.49 519.6 347.13 517.41C350.18 506.93 344.94 496.02 344.94 496.02C344.94 496.02 328.58 492.1 317.23 499.3Z" fill="#263238" stroke="#263238" stroke-linecap="round" stroke-linejoin="round"/>
<path d="M274.68 617.56C270.97 621.49 266.17 622.36 267.92 623.45C269.67 624.54 277.74 625.85 282.76 624.54C287.78 623.23 296.07 620.4 297.16 619.54C298.25 618.68 298.47 617.8 298.47 614.54C298.47 611.28 297.76 612.76 297.61 610.12L293 611C292.486 609.518 291.751 608.123 290.82 606.86C288.82 603.8 286.24 606.64 286.24 606.64C286.24 606.64 278.39 613.63 274.68 617.56Z" fill="white" stroke="#263238" stroke-linecap="round" stroke-linejoin="round"/>
<path d="M314.4 504.53C321.4 504.1 325.09 498.21 333.6 498.21H346.25C346.742 492.327 346.742 486.413 346.25 480.53C345.561 475.162 344.543 469.842 343.2 464.6C343.2 464.6 338.2 435.15 336.87 431C335.54 426.85 326.4 424 320.72 422.71C315.04 421.42 301.52 416.6 293.45 421.84C293.45 421.84 277.3 427.29 273.59 430.78C269.88 434.27 265.95 444.78 265.95 444.78L265.56 445.12C265.999 447.071 266.881 448.895 268.14 450.45C270.45 453.31 274.56 454.9 277.31 455.68L279.7 454.81L283.85 453.07C283.85 453.07 292.79 469.65 293.01 483.4C293.23 497.15 290.83 501.51 290.83 501.51C290.83 501.51 307.41 505 314.4 504.53Z" fill="white" stroke="#263238" stroke-linecap="round" stroke-linejoin="round"/>
<path d="M302.61 443.87L304.79 456.09L308.07 455.44L305.23 442.56" stroke="#263238" stroke-linecap="round" stroke-linejoin="round"/>
<path d="M302.94 496.31C299.54 497.61 297.38 498.21 297.38 498.21" stroke="#263238" stroke-linecap="round" stroke-linejoin="round"/>
<path d="M325.52 483.8C320.004 488.044 313.989 491.597 307.61 494.38" stroke="#263238" stroke-linecap="round" stroke-linejoin="round"/>
<path d="M328.46 486.28C324.46 489.38 318.99 493.17 313.74 495.15" stroke="#263238" stroke-linecap="round" stroke-linejoin="round"/>
<path d="M334.25 481.4C334.25 481.4 333.25 482.4 331.47 483.84" stroke="#263238" stroke-linecap="round" stroke-linejoin="round"/>
<path d="M336.87 431C335.56 426.85 326.4 424 320.72 422.71C315.04 421.42 301.52 416.6 293.45 421.84C293.45 421.84 277.3 427.29 273.59 430.78C269.88 434.27 265.95 444.78 265.95 444.78L265.56 445.12C265.999 447.071 266.881 448.895 268.14 450.45C270.45 453.31 274.56 454.9 277.31 455.68L279.7 454.81L283.85 453.07C283.85 453.07 279.7 440.41 280.36 438.67C281.02 436.93 298.9 425.57 298.9 425.57C298.9 425.57 301.74 427.1 304.36 428.19C306.98 429.28 310.03 430.59 310.03 430.59L342.63 461.31C341.27 453.46 337.91 434.29 336.87 431Z" fill="#4A5CF9" stroke="#263238" stroke-linecap="round" stroke-linejoin="round"/>
<path d="M272.5 457.4C272.5 457.4 264.65 458.93 263.12 453.26" stroke="#263238" stroke-linecap="round" stroke-linejoin="round"/>
<path d="M296.72 417.69C296.72 417.69 292.58 418.56 291.72 421.62C290.86 424.68 287.58 440.82 289.54 440.38C291.5 439.94 302.41 434.27 304.16 433.18C305.91 432.09 316.6 442.13 317.91 441.04C319.22 439.95 322.05 427.29 319.43 421.18C316.81 415.07 305.69 415.94 303.29 416.6C301.124 417.096 298.93 417.46 296.72 417.69Z" fill="#4A5CF9" stroke="#263238" stroke-linecap="round" stroke-linejoin="round"/>
<path d="M321.6 380.6C321.6 380.6 325.09 381.47 332.72 392.81C340.35 404.15 332.07 414.81 325.31 416.6C318.55 418.39 311.89 418.02 310.25 408.74C308.61 399.46 317 379.29 321.6 380.6Z" fill="#263238" stroke="#263238" stroke-linecap="round" stroke-linejoin="round"/>
<path d="M294.32 415.51C294.32 415.51 296.94 428.16 298.68 431.44C300.42 434.72 302.61 441.04 303.49 441.25C304.37 441.46 313.3 424.25 313.74 423.14C314.18 422.03 313.09 412.23 313.09 412.23C313.09 412.23 307 417.47 294.32 415.51Z" fill="white" stroke="#263238" stroke-linecap="round" stroke-linejoin="round"/>
<path d="M306.06 419.23L296.25 415.75C295.62 415.68 294.98 415.61 294.32 415.51C294.32 415.51 296.02 423.74 297.6 428.64L306.06 419.23Z" fill="#263238" stroke="#263238" stroke-linecap="round" stroke-linejoin="round"/>
<path d="M286.47 400.23C286.47 400.23 289.3 411.36 291.27 413.98C293.24 416.6 300.21 421.62 303.7 421.4C307.19 421.18 314.4 415.07 315.7 411.4C317 407.73 318.76 394.82 318.76 394.82C318.76 394.82 313.96 382.38 311.56 379.98C309.16 377.58 299.99 377.14 295.63 380.42C291.27 383.7 286.47 388.05 285.81 390.67C285.15 393.29 286.47 400.23 286.47 400.23Z" fill="white" stroke="#263238" stroke-linecap="round" stroke-linejoin="round"/>
<path d="M307.85 381.47C307.85 381.47 296.72 391.47 293.01 393.25C289.3 395.03 288.21 395 288.21 395C288.21 395 287.56 399.14 286.47 400.23C285.38 401.32 283.19 398.71 283.19 398.71C283.19 398.71 275.12 392.38 274.68 387.58C274.24 382.78 281.68 366.58 299.12 366.85C316.56 367.12 321.6 373.18 321.6 380.6C321.485 385.456 320.524 390.255 318.76 394.78C318.54 395.65 318.1 400.45 316.58 399.36C315.06 398.27 313.3 393.91 313.3 393.91C313.3 393.91 307.85 383.87 307.85 381.47Z" fill="#263238" stroke="#263238" stroke-linecap="round" stroke-linejoin="round"/>
<path d="M301.3 404.6C301.3 404.6 304.36 405.03 305.23 403.72" stroke="#263238" stroke-linecap="round" stroke-linejoin="round"/>
<path d="M296.28 407.22C296.28 407.22 299.78 409.83 303.05 409.4C305.212 408.992 307.193 407.923 308.72 406.34" stroke="#263238" stroke-linecap="round" stroke-linejoin="round"/>
<path d="M295.96 399.79C296.744 399.79 297.38 398.863 297.38 397.72C297.38 396.577 296.744 395.65 295.96 395.65C295.176 395.65 294.54 396.577 294.54 397.72C294.54 398.863 295.176 399.79 295.96 399.79Z" fill="#263238"/>
<path d="M308.61 399.47C309.394 399.47 310.03 398.543 310.03 397.4C310.03 396.257 309.394 395.33 308.61 395.33C307.826 395.33 307.19 396.257 307.19 397.4C307.19 398.543 307.826 399.47 308.61 399.47Z" fill="#263238"/>
<path d="M293 393.25C293 393.25 296.06 389.32 298.24 391.72" stroke="#263238" stroke-linecap="round" stroke-linejoin="round"/>
<path d="M306.76 392.16C306.76 392.16 309.38 389.54 311.76 393.03" stroke="#263238" stroke-linecap="round" stroke-linejoin="round"/>
<path d="M286.47 400.23C286.47 400.23 284.72 393.91 283.19 398.71C281.66 403.51 288.43 407.22 288.43 407.22L286.47 400.23Z" fill="white" stroke="#263238" stroke-linecap="round" stroke-linejoin="round"/>
<path d="M318.54 397.18C318.54 397.18 320.72 392.81 321.16 397.83C321.257 399.31 320.941 400.787 320.247 402.097C319.553 403.407 318.508 404.499 317.23 405.25L318.54 397.18Z" fill="white" stroke="#263238" stroke-linecap="round" stroke-linejoin="round"/>
<path d="M348.65 514.57C348.022 516.723 347.515 518.91 347.13 521.12C347.13 522.21 349.13 527.23 349.74 528.53C350.35 529.83 352.62 529.08 352.36 527.01C352.1 524.94 350.83 522.64 351.27 521.55" fill="white"/>
<path d="M348.65 514.57C348.022 516.723 347.515 518.91 347.13 521.12C347.13 522.21 349.13 527.23 349.74 528.53C350.35 529.83 352.62 529.08 352.36 527.01C352.1 524.94 350.83 522.64 351.27 521.55" stroke="#263238" stroke-linecap="round" stroke-linejoin="round"/>
<path d="M327.49 425.11C327.49 425.11 339.05 425.76 344.73 432.31C350.41 438.86 364.58 473.31 364.36 475.31C364.14 477.31 356.94 511.31 356.94 511.31C356.94 511.31 361.94 518.51 360.65 520.04C359.36 521.57 358.04 524.84 356.51 525.71C355.221 526.402 353.813 526.846 352.36 527.02C350.36 527.45 348.43 519.82 348.43 515.89C348.43 511.96 349.53 475.96 349.53 475.96L329.67 442.57" fill="#4A5CF9"/>
<path d="M327.49 425.11C327.49 425.11 339.05 425.76 344.73 432.31C350.41 438.86 364.58 473.31 364.36 475.31C364.14 477.31 356.94 511.31 356.94 511.31C356.94 511.31 361.94 518.51 360.65 520.04C359.36 521.57 358.04 524.84 356.51 525.71C355.221 526.402 353.813 526.846 352.36 527.02C350.36 527.45 348.43 519.82 348.43 515.89C348.43 511.96 349.53 475.96 349.53 475.96L329.67 442.57" stroke="#263238" stroke-linecap="round" stroke-linejoin="round"/>
<path d="M360.65 520C361.96 518.47 356.94 511.27 356.94 511.27C356.94 511.27 364.14 477.27 364.36 475.27C364.44 474.54 362.51 469.27 359.76 462.58L345.13 468.58L349.53 475.98C349.53 475.98 348.43 511.98 348.43 515.91C348.43 519.84 350.43 527.47 352.36 527.04C353.813 526.867 355.221 526.422 356.51 525.73C358 524.83 359.34 521.55 360.65 520Z" fill="white" stroke="#263238" stroke-linecap="round" stroke-linejoin="round"/>
<path d="M337.51 535.5L352.1 524.93C352.563 524.513 352.911 523.984 353.109 523.394C353.307 522.803 353.349 522.171 353.23 521.56C352.99 520.09 352.23 518.56 351.32 519.31L337.32 533.96L337.51 535.5Z" fill="white" stroke="#263238" stroke-linecap="round" stroke-linejoin="round"/>
<path d="M337.616 547.014C339.584 535.753 335.696 525.665 328.934 524.484C322.171 523.303 315.094 531.474 313.127 542.736C311.159 553.998 315.047 564.085 321.809 565.266C328.571 566.448 335.649 558.276 337.616 547.014Z" fill="white" stroke="#263238" stroke-linecap="round" stroke-linejoin="round"/>
<path d="M332.64 528.58C333.141 529.094 333.593 529.653 333.99 530.25C334.266 530.661 334.516 531.089 334.74 531.53C334.9 531.84 335.05 532.14 335.18 532.45C335.31 532.76 335.36 532.86 335.44 533.07C335.733 533.813 335.976 534.575 336.17 535.35C336.27 535.74 336.36 536.13 336.44 536.53C336.619 537.459 336.746 538.397 336.82 539.34C336.82 539.44 336.82 539.54 336.82 539.63C336.875 540.586 336.875 541.544 336.82 542.5C336.8 543.407 336.73 544.311 336.61 545.21C336.61 545.7 336.49 546.21 336.4 546.67C336.34 547.05 336.27 547.42 336.19 547.8C336.01 548.63 335.81 549.46 335.57 550.27C335.33 551.08 335.06 551.86 334.75 552.62C334.59 553.04 334.41 553.46 334.22 553.88C334.07 554.2 333.92 554.53 333.76 554.88C333.396 555.605 332.992 556.31 332.55 556.99C332.38 557.27 332.2 557.54 332.02 557.8C331.84 558.06 331.42 558.6 331.12 558.97C330.98 559.15 330.83 559.32 330.68 559.49C330.276 559.939 329.849 560.366 329.4 560.77C329.002 561.13 328.581 561.464 328.14 561.77C327.857 561.967 327.563 562.147 327.26 562.31C326.837 562.554 326.391 562.758 325.93 562.92C325.405 563.126 324.858 563.27 324.3 563.35L323.93 563.4C323.317 563.46 322.698 563.44 322.09 563.34C321.506 563.242 320.938 563.067 320.4 562.82C319.836 562.555 319.309 562.219 318.83 561.82C318.306 561.397 317.824 560.925 317.39 560.41C316.908 559.82 316.479 559.187 316.11 558.52C316.051 558.423 315.997 558.323 315.95 558.22V558.15C315.599 557.463 315.292 556.755 315.03 556.03C314.86 555.54 314.71 555.03 314.57 554.5C314.42 553.93 314.28 553.34 314.18 552.73C314.08 552.12 314.03 551.79 313.97 551.3C313.858 550.304 313.798 549.302 313.79 548.3V547.8C313.79 547.04 313.79 546.29 313.89 545.53C313.99 544.77 314.08 543.77 314.24 542.89C314.4 542.01 314.56 541.2 314.78 540.38C315 539.56 315.23 538.76 315.51 537.97C315.79 537.18 316.09 536.42 316.43 535.68C316.763 534.94 317.137 534.219 317.55 533.52C317.852 532.958 318.186 532.414 318.55 531.89L318.82 531.52C319.306 530.854 319.837 530.223 320.41 529.63C320.72 529.32 321.03 529.03 321.34 528.77C321.68 528.48 322.03 528.22 322.34 527.98C322.751 527.679 323.19 527.418 323.65 527.2C324.041 526.991 324.449 526.817 324.87 526.68C325.16 526.58 325.44 526.51 325.73 526.44C326.356 526.298 326.999 526.244 327.64 526.28C328.239 526.306 328.831 526.414 329.4 526.6C329.975 526.784 330.523 527.043 331.03 527.37C331.611 527.711 332.151 528.117 332.64 528.58Z" stroke="#263238" stroke-linecap="round" stroke-linejoin="round"/>
<path d="M324.36 563.34L324.06 563.16L322.49 562.2L320.93 561.25L319.36 560.29L317.79 559.33L316.22 558.37L316.01 558.25H316" stroke="#263238" stroke-width="0.5" stroke-linecap="round" stroke-linejoin="round"/>
<path d="M327.32 562.3L326.35 561.71L324.78 560.75L323.22 559.8L321.65 558.84L320.08 557.88L318.51 556.93L316.95 555.97L315.37 555.02L314.59 554.53" stroke="#263238" stroke-width="0.5" stroke-linecap="round" stroke-linejoin="round"/>
<path d="M329.46 560.76L328.64 560.26L327.08 559.31L325.51 558.35L323.94 557.39L322.38 556.44L320.81 555.48L319.24 554.53L317.67 553.57L316.1 552.61L314.53 551.66L313.99 551.33" stroke="#263238" stroke-width="0.5" stroke-linecap="round" stroke-linejoin="round"/>
<path d="M331.18 558.96L330.94 558.81L329.38 557.86L327.8 556.9L326.23 555.94L324.66 554.98L323.1 554.04L321.53 553.08L319.96 552.12L318.39 551.16L316.83 550.21L315.26 549.25L313.81 548.37L313.69 548.29" stroke="#263238" stroke-width="0.5" stroke-linecap="round" stroke-linejoin="round"/>
<path d="M313.92 545.59L314.41 545.89L315.98 546.84L317.55 547.8L319.12 548.76L320.69 549.71L322.26 550.67L323.83 551.63L325.39 552.58L326.96 553.54L328.53 554.49L330.1 555.45L331.67 556.41L332.61 556.98" stroke="#263238" stroke-width="0.5" stroke-linecap="round" stroke-linejoin="round"/>
<path d="M333.96 554.96L333.82 554.87L332.39 554L330.82 553.04L329.26 552.09L327.69 551.13L326.12 550.18L324.55 549.22L322.99 548.27L321.42 547.31L319.85 546.35L318.27 545.4L316.71 544.44L315.14 543.48L314.27 542.95" stroke="#263238" stroke-width="0.5" stroke-linecap="round" stroke-linejoin="round"/>
<path d="M314.81 540.44L315.86 541.08L317.43 542.04L319 542.99L320.57 543.95L322.14 544.9L323.71 545.86L325.28 546.81L326.84 547.77L328.41 548.73L329.98 549.68L331.55 550.64L333.12 551.6L334.69 552.55L334.81 552.63" stroke="#263238" stroke-width="0.5" stroke-linecap="round" stroke-linejoin="round"/>
<path d="M315.54 538.03L316.59 538.68L318.16 539.63L319.73 540.59L321.3 541.54L322.87 542.5L324.43 543.46L326.01 544.41L327.57 545.37L329.14 546.31L330.71 547.28L332.28 548.24L333.85 549.19L335.41 550.15L335.63 550.28" stroke="#263238" stroke-width="0.5" stroke-linecap="round" stroke-linejoin="round"/>
<path d="M316.46 535.74L317.32 536.26L318.89 537.23L320.45 538.17L322.02 539.14L323.59 540.1L325.16 541.05L326.73 542.01L328.3 542.95L329.87 543.92L331.44 544.88L333 545.83L334.57 546.79L336.14 547.74L336.25 547.81" stroke="#263238" stroke-width="0.5" stroke-linecap="round" stroke-linejoin="round"/>
<path d="M336.87 545.34L336.67 545.21L335.3 544.38L333.73 543.43L332.16 542.46L330.59 541.51L329.02 540.55L327.46 539.6L325.89 538.65L324.32 537.69L322.75 536.73L321.18 535.77L319.61 534.81L318.04 533.86L317.58 533.58" stroke="#263238" stroke-width="0.5" stroke-linecap="round" stroke-linejoin="round"/>
<path d="M318.77 531.45L318.91 531.55L320.34 532.41L321.91 533.37L323.48 534.32L325.04 535.28L326.61 536.23L328.18 537.19L329.75 538.15L331.31 539.1L332.88 540.06L334.46 541.01L336.03 541.98L336.88 542.5" stroke="#263238" stroke-width="0.5" stroke-linecap="round" stroke-linejoin="round"/>
<path d="M336.84 539.63L336.75 539.57L335.18 538.61L333.62 537.65H333.61L332.04 536.7L330.47 535.74L328.91 534.79L327.34 533.83L325.77 532.87L324.2 531.92L322.63 530.96L321.06 530.01L320.5 529.66" stroke="#263238" stroke-width="0.5" stroke-linecap="round" stroke-linejoin="round"/>
<path d="M322.46 528L323.36 528.56L324.93 529.51L326.5 530.47L328.06 531.43L329.64 532.38L331.2 533.33L332.77 534.29L334.34 535.25L335.91 536.21L336.44 536.53" stroke="#263238" stroke-width="0.5" stroke-linecap="round" stroke-linejoin="round"/>
<path d="M324.99 526.7L325.66 527.11L327.22 528.07L328.79 529.02L330.36 529.98L331.93 530.93L333.49 531.88L335.06 532.85L335.44 533.07" stroke="#263238" stroke-width="0.5" stroke-linecap="round" stroke-linejoin="round"/>
<path d="M313.69 548.29L313.81 547.87L313.82 547.86L314.41 545.89L315.14 543.48L315.86 541.08L316.59 538.68L317.32 536.26L318.04 533.86L318.62 531.95V531.94L318.77 531.45" stroke="#263238" stroke-width="0.5" stroke-linecap="round" stroke-linejoin="round"/>
<path d="M321.43 528.79V528.8L321.06 530.01L320.34 532.41L319.61 534.81L318.89 537.23L318.16 539.63L317.43 542.04L316.71 544.44L315.98 546.84L315.26 549.25L314.53 551.66L314.2 552.76" stroke="#263238" stroke-width="0.5" stroke-linecap="round" stroke-linejoin="round"/>
<path d="M315.06 556.06L315.37 555.02L316.1 552.61L316.83 550.21L317.55 547.8L318.27 545.4L319 542.99L319.73 540.59L320.45 538.17L321.18 535.77L321.91 533.37L322.63 530.96L323.36 528.56L323.77 527.22" stroke="#263238" stroke-width="0.5" stroke-linecap="round" stroke-linejoin="round"/>
<path d="M316.17 558.55L316.22 558.37L316.95 555.97L317.67 553.57L318.39 551.16L319.12 548.76L319.85 546.35L320.57 543.95L321.3 541.54L322.02 539.14L322.75 536.73L323.48 534.32L324.2 531.92L324.93 529.51L325.66 527.11L325.85 526.46" stroke="#263238" stroke-width="0.5" stroke-linecap="round" stroke-linejoin="round"/>
<path d="M317.45 560.44L317.79 559.33L318.51 556.93L319.24 554.53L319.96 552.12L320.69 549.71L321.42 547.31L322.14 544.9L322.87 542.5L323.59 540.1L324.32 537.69L325.04 535.28L325.77 532.87L326.5 530.47L327.22 528.07L327.76 526.3" stroke="#263238" stroke-width="0.5" stroke-linecap="round" stroke-linejoin="round"/>
<path d="M318.89 561.85L319.36 560.29L320.08 557.88L320.81 555.48L321.53 553.08L322.26 550.67L322.99 548.27L323.71 545.86L324.43 543.46L325.16 541.05L325.89 538.65L326.61 536.23L327.34 533.83L328.06 531.43L328.79 529.02L329.52 526.62" stroke="#263238" stroke-width="0.5" stroke-linecap="round" stroke-linejoin="round"/>
<path d="M320.46 562.81L320.93 561.25L321.65 558.84L322.38 556.44L323.1 554.04L323.83 551.63L324.55 549.22L325.28 546.81L326.01 544.41L326.73 542.01L327.46 539.6L328.18 537.19L328.91 534.79L329.64 532.38L330.36 529.98L331.15 527.39" stroke="#263238" stroke-width="0.5" stroke-linecap="round" stroke-linejoin="round"/>
<path d="M322.15 563.33L322.49 562.2L323.22 559.8L323.94 557.39L324.66 554.98L325.39 552.58L326.12 550.18L326.84 547.77L327.57 545.37L328.3 542.95L329.02 540.55L329.75 538.15L330.47 535.74L331.2 533.33L331.93 530.93L332.64 528.58" stroke="#263238" stroke-width="0.5" stroke-linecap="round" stroke-linejoin="round"/>
<path d="M323.99 563.39L324.06 563.16L324.78 560.75L325.51 558.35L326.23 555.94L326.96 553.54L327.69 551.13L328.41 548.73L329.14 546.31L329.87 543.92L330.59 541.51L331.31 539.1L332.04 536.7L332.77 534.29L333.49 531.88L333.99 530.25" stroke="#263238" stroke-width="0.5" stroke-linecap="round" stroke-linejoin="round"/>
<path d="M325.99 562.91L326.35 561.71L327.08 559.31L327.8 556.9L328.53 554.49L329.26 552.09L329.98 549.68L330.71 547.28L331.44 544.88L332.16 542.46L332.88 540.06L333.62 537.65H333.61L334.34 535.25L335.06 532.85L335.18 532.45" stroke="#263238" stroke-width="0.5" stroke-linecap="round" stroke-linejoin="round"/>
<path d="M328.2 561.76V561.75L328.64 560.26L329.38 557.86L330.1 555.45L330.82 553.04L331.55 550.64L332.28 548.24L333 545.83L333.73 543.43L334.46 541.01L335.18 538.61L335.91 536.21L336.17 535.35" stroke="#263238" stroke-width="0.5" stroke-linecap="round" stroke-linejoin="round"/>
<path d="M330.74 559.48L330.94 558.81L331.67 556.41L332.39 554L333.12 551.6L333.85 549.19L334.57 546.79L335.3 544.38L336.03 541.98L336.75 539.57L336.82 539.34" stroke="#263238" stroke-width="0.5" stroke-linecap="round" stroke-linejoin="round"/>
<path d="M336.87 545.34L336.46 546.67V546.68L336.14 547.74L335.41 550.15L334.69 552.55L334.28 553.89V553.9L333.96 554.96" stroke="#263238" stroke-width="0.5" stroke-linecap="round" stroke-linejoin="round"/>
<path d="M663.46 370.45H201.22V378.55H663.46V370.45Z" fill="white"/>
<path d="M663.46 378.55H201.22" stroke="#263238" stroke-linecap="round" stroke-linejoin="round"/>
<path d="M201.22 370.45H663.46" stroke="#263238" stroke-linecap="round" stroke-linejoin="round"/>
<path d="M663.46 491.19H201.22V492.1H663.46V491.19Z" fill="#263238" stroke="#263238" stroke-linecap="round" stroke-linejoin="round"/>
<path d="M220.65 388.51V428.3" stroke="#263238" stroke-width="0.5" stroke-linecap="round" stroke-linejoin="round"/>
<path d="M226.32 382.74V436.21" stroke="#263238" stroke-width="0.5" stroke-linecap="round" stroke-linejoin="round"/>
<path d="M232 382.74V422.7" stroke="#263238" stroke-width="0.5" stroke-linecap="round" stroke-linejoin="round"/>
<path d="M237.68 382.74V436.21" stroke="#263238" stroke-width="0.5" stroke-linecap="round" stroke-linejoin="round"/>
<path d="M223.81 388.32H235.02" stroke="#263238" stroke-width="0.5" stroke-linecap="round" stroke-linejoin="round"/>
<path d="M229.98 392.62H244.36" stroke="#263238" stroke-width="0.5" stroke-linecap="round" stroke-linejoin="round"/>
<path d="M216.9 392.62H227.55" stroke="#263238" stroke-width="0.5" stroke-linecap="round" stroke-linejoin="round"/>
<path d="M217.08 397.66H245.67" stroke="#263238" stroke-width="0.5" stroke-linecap="round" stroke-linejoin="round"/>
<path d="M236.7 403.46H245.67" stroke="#263238" stroke-width="0.5" stroke-linecap="round" stroke-linejoin="round"/>
<path d="M217.83 403.46H234.09" stroke="#263238" stroke-width="0.5" stroke-linecap="round" stroke-linejoin="round"/>
<path d="M208.68 403.46H215.03" stroke="#263238" stroke-width="0.5" stroke-linecap="round" stroke-linejoin="round"/>
<path d="M213.91 409.25H245.67" stroke="#263238" stroke-width="0.5" stroke-linecap="round" stroke-linejoin="round"/>
<path d="M217.08 415.04H245.67" stroke="#263238" stroke-width="0.5" stroke-linecap="round" stroke-linejoin="round"/>
<path d="M211.11 420.83H245.67" stroke="#263238" stroke-width="0.5" stroke-linecap="round" stroke-linejoin="round"/>
<path d="M233.71 426.62H245.67" stroke="#263238" stroke-width="0.5" stroke-linecap="round" stroke-linejoin="round"/>
<path d="M217.08 426.62H228.29" stroke="#263238" stroke-width="0.5" stroke-linecap="round" stroke-linejoin="round"/>
<path d="M243.8 400.65V417.65" stroke="#263238" stroke-width="0.5" stroke-linecap="round" stroke-linejoin="round"/>
<path d="M382.93 430.24V470.04" stroke="#263238" stroke-width="0.5" stroke-linecap="round" stroke-linejoin="round"/>
<path d="M388.61 424.47V477.94" stroke="#263238" stroke-width="0.5" stroke-linecap="round" stroke-linejoin="round"/>
<path d="M394.29 424.47V464.43" stroke="#263238" stroke-width="0.5" stroke-linecap="round" stroke-linejoin="round"/>
<path d="M399.97 424.47V477.94" stroke="#263238" stroke-width="0.5" stroke-linecap="round" stroke-linejoin="round"/>
<path d="M386.1 430.05H397.31" stroke="#263238" stroke-width="0.5" stroke-linecap="round" stroke-linejoin="round"/>
<path d="M392.26 434.35H406.65" stroke="#263238" stroke-width="0.5" stroke-linecap="round" stroke-linejoin="round"/>
<path d="M379.18 434.35H389.83" stroke="#263238" stroke-width="0.5" stroke-linecap="round" stroke-linejoin="round"/>
<path d="M379.37 439.4H407.96" stroke="#263238" stroke-width="0.5" stroke-linecap="round" stroke-linejoin="round"/>
<path d="M398.99 445.19H407.96" stroke="#263238" stroke-width="0.5" stroke-linecap="round" stroke-linejoin="round"/>
<path d="M380.12 445.19H396.37" stroke="#263238" stroke-width="0.5" stroke-linecap="round" stroke-linejoin="round"/>
<path d="M370.96 445.19H377.32" stroke="#263238" stroke-width="0.5" stroke-linecap="round" stroke-linejoin="round"/>
<path d="M376.2 450.98H407.96" stroke="#263238" stroke-width="0.5" stroke-linecap="round" stroke-linejoin="round"/>
<path d="M379.37 456.77H407.96" stroke="#263238" stroke-width="0.5" stroke-linecap="round" stroke-linejoin="round"/>
<path d="M373.39 462.56H407.96" stroke="#263238" stroke-width="0.5" stroke-linecap="round" stroke-linejoin="round"/>
<path d="M396 468.35H407.96" stroke="#263238" stroke-width="0.5" stroke-linecap="round" stroke-linejoin="round"/>
<path d="M379.37 468.35H390.58" stroke="#263238" stroke-width="0.5" stroke-linecap="round" stroke-linejoin="round"/>
<path d="M406.09 442.38V459.39" stroke="#263238" stroke-width="0.5" stroke-linecap="round" stroke-linejoin="round"/>
<path d="M621.15 430.24V470.04" stroke="#263238" stroke-width="0.5" stroke-linecap="round" stroke-linejoin="round"/>
<path d="M626.83 424.47V477.94" stroke="#263238" stroke-width="0.5" stroke-linecap="round" stroke-linejoin="round"/>
<path d="M632.5 424.47V464.43" stroke="#263238" stroke-width="0.5" stroke-linecap="round" stroke-linejoin="round"/>
<path d="M638.18 424.47V477.94" stroke="#263238" stroke-width="0.5" stroke-linecap="round" stroke-linejoin="round"/>
<path d="M624.31 430.05H635.52" stroke="#263238" stroke-width="0.5" stroke-linecap="round" stroke-linejoin="round"/>
<path d="M630.48 434.35H644.86" stroke="#263238" stroke-width="0.5" stroke-linecap="round" stroke-linejoin="round"/>
<path d="M617.4 434.35H628.05" stroke="#263238" stroke-width="0.5" stroke-linecap="round" stroke-linejoin="round"/>
<path d="M617.59 439.4H646.17" stroke="#263238" stroke-width="0.5" stroke-linecap="round" stroke-linejoin="round"/>
<path d="M637.2 445.19H646.17" stroke="#263238" stroke-width="0.5" stroke-linecap="round" stroke-linejoin="round"/>
<path d="M618.33 445.19H634.59" stroke="#263238" stroke-width="0.5" stroke-linecap="round" stroke-linejoin="round"/>
<path d="M609.18 445.19H615.53" stroke="#263238" stroke-width="0.5" stroke-linecap="round" stroke-linejoin="round"/>
<path d="M614.41 450.98H646.17" stroke="#263238" stroke-width="0.5" stroke-linecap="round" stroke-linejoin="round"/>
<path d="M617.59 456.77H646.17" stroke="#263238" stroke-width="0.5" stroke-linecap="round" stroke-linejoin="round"/>
<path d="M611.61 462.56H646.17" stroke="#263238" stroke-width="0.5" stroke-linecap="round" stroke-linejoin="round"/>
<path d="M634.21 468.35H646.17" stroke="#263238" stroke-width="0.5" stroke-linecap="round" stroke-linejoin="round"/>
<path d="M617.59 468.35H628.8" stroke="#263238" stroke-width="0.5" stroke-linecap="round" stroke-linejoin="round"/>
<path d="M644.3 442.38V459.39" stroke="#263238" stroke-width="0.5" stroke-linecap="round" stroke-linejoin="round"/>
<path d="M463.5 387.93V427.72" stroke="#263238" stroke-width="0.5" stroke-linecap="round" stroke-linejoin="round"/>
<path d="M469.18 382.16V435.63" stroke="#263238" stroke-width="0.5" stroke-linecap="round" stroke-linejoin="round"/>
<path d="M474.85 382.16V422.12" stroke="#263238" stroke-width="0.5" stroke-linecap="round" stroke-linejoin="round"/>
<path d="M480.53 382.16V435.63" stroke="#263238" stroke-width="0.5" stroke-linecap="round" stroke-linejoin="round"/>
<path d="M466.66 387.74H477.87" stroke="#263238" stroke-width="0.5" stroke-linecap="round" stroke-linejoin="round"/>
<path d="M472.83 392.04H487.21" stroke="#263238" stroke-width="0.5" stroke-linecap="round" stroke-linejoin="round"/>
<path d="M459.75 392.04H470.4" stroke="#263238" stroke-width="0.5" stroke-linecap="round" stroke-linejoin="round"/>
<path d="M459.94 397.08H488.52" stroke="#263238" stroke-width="0.5" stroke-linecap="round" stroke-linejoin="round"/>
<path d="M479.55 402.88H488.52" stroke="#263238" stroke-width="0.5" stroke-linecap="round" stroke-linejoin="round"/>
<path d="M460.68 402.88H476.94" stroke="#263238" stroke-width="0.5" stroke-linecap="round" stroke-linejoin="round"/>
<path d="M451.53 402.88H457.88" stroke="#263238" stroke-width="0.5" stroke-linecap="round" stroke-linejoin="round"/>
<path d="M456.76 408.67H488.52" stroke="#263238" stroke-width="0.5" stroke-linecap="round" stroke-linejoin="round"/>
<path d="M459.94 414.46H488.52" stroke="#263238" stroke-width="0.5" stroke-linecap="round" stroke-linejoin="round"/>
<path d="M453.96 420.25H488.52" stroke="#263238" stroke-width="0.5" stroke-linecap="round" stroke-linejoin="round"/>
<path d="M476.56 426.04H488.52" stroke="#263238" stroke-width="0.5" stroke-linecap="round" stroke-linejoin="round"/>
<path d="M459.94 426.04H471.15" stroke="#263238" stroke-width="0.5" stroke-linecap="round" stroke-linejoin="round"/>
<path d="M486.65 400.07V417.08" stroke="#263238" stroke-width="0.5" stroke-linecap="round" stroke-linejoin="round"/>
</svg>
