<svg width="22" height="26" viewBox="0 0 22 26" fill="none" xmlns="http://www.w3.org/2000/svg">
<path d="M14.3056 3.09175C13.9784 3.54701 14.1758 4.15648 14.6797 4.40224L20.0385 7.01591C20.5349 7.25801 21.1284 7.04791 21.2899 6.51978C21.7289 5.08487 22.1315 2.37085 19.505 1.08981C17.0691 -0.0982484 15.185 1.86801 14.3056 3.09175Z" fill="white"/>
<path d="M1.04903 14.968C0.335792 15.5519 0.725223 16.7079 1.64637 16.7412L7.79962 16.9635C8.27182 16.9805 8.66763 17.3258 8.74869 17.7913L9.18364 20.289C9.30064 20.9609 10.0411 21.3211 10.6419 20.9985L12.8681 19.803C13.285 19.5791 13.8018 19.6781 14.1065 20.0403L18.0688 24.7508C18.6621 25.4562 19.8129 25.0514 19.8338 24.1298L20.1628 9.65305C20.1716 9.26261 19.9524 8.90274 19.6014 8.73154L13.3256 5.67061C12.9745 5.4994 12.556 5.54822 12.2538 5.79561L1.04903 14.968Z" fill="#263238"/>
</svg>
